<?xml version="1.0" encoding="utf-8"?>
<!-- Generator: Adobe Illustrator 21.1.0, SVG Export Plug-In . SVG Version: 6.00 Build 0)  -->
<svg version="1.1" id="Layer_1" xmlns="http://www.w3.org/2000/svg" xmlns:xlink="http://www.w3.org/1999/xlink" x="0px" y="0px"
	 width="717px" height="115px" viewBox="0 0 717 115" style="enable-background:new 0 0 717 115;" xml:space="preserve">
<style type="text/css">
	.st0{fill:none;}
	.st1{fill-rule:evenodd;clip-rule:evenodd;fill:#602815;}
	.st2{fill-rule:evenodd;clip-rule:evenodd;}
</style>
<g>
	<rect x="6.9" y="7.4" class="st0" width="702.1" height="61.6"/>
	<path d="M59.3,51.9c-0.3,0.1-0.7,0.2-1,0.3c-0.3,0.1-0.7,0.2-1,0.2c-0.5,0-1,0.1-1.5,0c-0.5,0-0.9-0.1-1.4-0.1
		c-0.4,1.9-0.8,4-1.3,6.3c-0.5,2.3-1.1,4.6-1.9,6.9c-0.7,2.3-1.6,4.6-2.6,6.8c-1,2.2-2.2,4.1-3.5,5.8c-1.3,1.5-2.9,2.7-4.7,3.8
		c-1.8,1-3.8,1.6-5.9,1.8c-3.1,0-5.8-0.8-8.2-2.3c-2.3-1.5-4.3-3.5-5.9-5.9c-1.6-2.4-2.8-5.1-3.7-8c-0.9-3-1.4-5.9-1.5-8.9
		c-0.1-1.4-0.2-3-0.2-4.9c0-2,0.1-4.3,0.3-6.9c0.2-2.7,0.5-5.4,1-8.2c0.5-2.8,1.2-5.6,2.1-8.4c0.9-2.8,2.1-5.2,3.5-7.4
		s3.2-3.9,5.2-5.2c2-1.3,4.4-2,7.2-2c1.3,0,2.5,0.2,3.5,0.7c1.1-0.8,2.5-1.3,4.1-1.5c1.1,0,2.1,0.2,3.1,0.7c0.9,0.5,1.8,1.2,2.6,2
		c0.8,0.8,1.5,1.8,2.1,2.9c0.6,1.1,1.1,2.1,1.6,3.1c0.4,1.2,0.8,2.6,1.2,4c0.4,1.4,0.7,2.8,1,4.3c0.3,1.5,0.5,2.9,0.7,4.4
		c0.2,1.4,0.3,2.8,0.4,4.1c0,0.6,0.1,1.1,0.1,1.6c0,0.5,0,1.1,0,1.6c0,1.3,0,2.5-0.1,3.8c-0.1,1.2-0.2,2.5-0.2,3.8
		c0.9,0.2,1.7,0.2,2.6,0.2c0.4,0,0.7-0.1,1.1-0.2c0.4-0.1,0.8-0.3,1.1-0.4V51.9z M35.7,22.9c0-0.3-0.1-0.4-0.1-0.5c0,0,0-0.2,0-0.4
		c-2.3,1.7-4.2,3.8-5.6,6.2s-2.5,5.1-3.3,8C25.8,39,25.3,42,25.1,45c-0.3,3-0.4,6-0.4,8.8c0,0.4,0,0.8,0,1.2c0,0.4,0,0.8,0.1,1.2
		c0,0.2,0,0.4,0,0.6c0,0.2,0,0.4,0,0.6c0.1,1.2,0.2,2.6,0.5,4.3c0.2,1.6,0.5,3.4,0.9,5.1c0.4,1.8,0.9,3.5,1.4,5.2
		c0.6,1.7,1.3,3.3,2.1,4.6c0.8,1.4,1.8,2.5,2.9,3.3c1.1,0.8,2.3,1.3,3.7,1.3c1.7-0.2,3.3-0.8,4.7-1.9c1.4-1.1,2.7-2.5,3.8-4.1
		c1.1-1.7,2.1-3.5,3-5.5c0.9-2,1.6-4.1,2.2-6.2c0.6-2.1,1.1-4.1,1.6-6.1c0.4-2,0.8-3.8,1-5.3c-1.4-0.8-2.7-1.7-3.9-2.6
		c-1.2-0.9-2.4-2-3.4-3.1c-1.4-1.4-2.6-2.9-3.7-4.6c-1.1-1.6-2-3.4-2.7-5.2l-0.4-1c-0.8-2-1.5-4.1-1.9-6.2
		C36.2,27.4,35.9,25.2,35.7,22.9L35.7,22.9z M42.3,24.3C42,23,41.6,22,41,21.4c-0.6-0.6-1.2-0.9-2-0.9c-0.2,0-0.8,0.2-1.8,0.6
		c0,0.3-0.1,0.7,0,1.1c0,0.4,0,0.8,0.1,1.1c0.2,2.4,0.6,4.8,1.2,7.3c0.6,2.4,1.5,4.8,2.6,7c1.1,2.2,2.5,4.3,4.1,6.3
		c1.6,2,3.5,3.7,5.6,5.2l2.2,1.4c0.1-1.1,0.2-2.1,0.3-3.2c0.1-1.1,0.1-2.1,0.1-3.1c0-0.6,0-1.1,0-1.7c0-0.6-0.1-1.1-0.1-1.7
		c-0.1-1.4-0.3-2.9-0.5-4.7c-0.2-1.8-0.6-3.5-1-5.4c-0.4-1.8-0.9-3.6-1.5-5.4c-0.6-1.8-1.3-3.3-2.1-4.7c-0.8-1.4-1.7-2.4-2.7-3.3
		c-1-0.8-2.1-1.2-3.4-1.2c-1.2,0.1-2,0.3-2.5,0.7c1.2,0.7,2.1,1.7,2.7,2.9c0.6,1.2,1.1,2.7,1.4,4.5H42.3z"/>
	<path d="M72,67.4c0.4,0,1-0.6,1.7-1.7c0.7-1.1,1.5-2.4,2.3-4.1c0.8-1.6,1.7-3.4,2.6-5.4s1.8-3.9,2.6-5.7l1.3,0.4l-3.1,7.2l-2.1,4.1
		c-0.5,1.1-1.1,2.2-1.7,3.3c-0.6,1.1-1.3,2.1-2,2.9c-0.7,0.9-1.4,1.5-2.2,2c-0.8,0.5-1.6,0.7-2.3,0.6c-1-0.2-1.9-0.6-2.5-1.4
		c-0.7-0.7-1.2-1.7-1.6-2.8c-0.4-1.1-0.7-2.3-0.8-3.7c-0.2-1.3-0.2-2.7-0.2-4.1c0-1.3,0.1-2.7,0.2-4.2c0.1-1.5,0.3-2.9,0.5-4.2
		c0.2-1.4,0.4-2.6,0.7-3.7c0.2-1.1,0.4-2,0.6-2.7l0.1-0.1c0.1-0.2,0.2-0.5,0.2-0.7c0.1-0.2,0.1-0.4,0.1-0.5c0-0.2-0.2-0.2-0.4-0.2
		c-0.3,0-0.7,0-1.1-0.1c-0.5-0.1-0.9-0.2-1.3-0.3c-0.2,0.5-0.4,0.9-0.5,1.3c-0.2,0.4-0.4,0.8-0.6,1.4c-0.2,0.6-0.5,1.3-0.9,2.3
		c-0.4,0.9-0.8,2.2-1.4,3.9h-1.4l3.7-9.4c-0.3-0.2-0.6-0.5-0.8-0.8c-0.3-0.3-0.5-0.6-0.7-0.9c-0.6-0.8-1-1.7-1.2-2.7
		c-0.3-1-0.4-1.9-0.4-2.8c0-0.8,0.1-1.5,0.3-2.2c0.2-0.7,0.5-1.4,0.8-2c0.4-0.6,0.8-1,1.4-1.3c0.6-0.3,1.3-0.5,2.1-0.4
		c0.6,0,1,0.2,1.4,0.6c0.4,0.3,0.6,0.7,0.8,1.2c0.2,0.4,0.3,0.9,0.4,1.3c0.1,0.4,0.1,0.7,0.1,0.9c-0.1,1.5-0.3,3-0.7,4.4
		c-0.4,1.4-0.9,2.8-1.6,4.2c0.5,0.1,1,0.2,1.6,0.2c0.5,0,1.1,0,1.6,0c0.5,0,1,0.1,1.5,0.1c0.5,0.1,1,0.3,1.6,0.5
		c0.6,0.4,1.1,0.9,1.5,1.6c0.4,0.7,0.7,1.5,0.7,2.2c0,0.4-0.1,1.3-0.3,2.5c-0.2,1.2-0.5,2.6-0.8,4.1c-0.3,1.6-0.5,3.2-0.8,4.9
		c-0.2,1.7-0.4,3.3-0.4,4.7c0,1.4,0.1,2.6,0.3,3.6c0.2,1,0.7,1.5,1.4,1.6L72,67.4z M60.3,34.4c0,1.1,0.2,2.2,0.5,3.3
		c0.4,1.1,1,2.1,1.8,2.9c0.2-0.4,0.4-0.8,0.6-1.3c0.2-0.5,0.4-1,0.6-1.6c0.6-1.8,0.9-3.5,0.9-5.1c0-0.7-0.1-1.2-0.3-1.7
		c-0.2-0.5-0.5-0.7-1-0.8c-1.1-0.1-1.9,0.3-2.4,1.2C60.6,32.2,60.3,33.3,60.3,34.4z"/>
	<path d="M109.6,50.4c-0.2,0.5-0.4,1.2-0.7,1.9c-0.3,0.7-0.6,1.5-0.9,2.4c-0.3,0.8-0.7,1.7-1.1,2.6c-0.4,0.9-0.7,1.8-1,2.6
		c-0.4,1.1-0.9,2.2-1.4,3.2c-0.5,1-1,1.9-1.6,2.7c-0.5,0.8-1.1,1.4-1.7,1.9s-1.2,0.7-1.9,0.7c-0.8,0-1.4-0.3-2-1
		c-0.6-0.7-1.1-1.5-1.5-2.5c-0.4-1-0.8-2.2-1.1-3.5c-0.3-1.3-0.5-2.5-0.7-3.7c-0.2-1.2-0.3-2.3-0.4-3.4c-0.1-1-0.2-1.8-0.2-2.4
		c-0.2,0.9-0.6,2-1.2,3.2c-0.5,1.3-1.2,2.5-1.9,3.7c-0.7,1.2-1.6,2.2-2.5,3.1c-0.9,0.9-1.9,1.3-3,1.3c-1.4,0-2.6-0.3-3.6-1
		c-1-0.6-1.8-1.5-2.4-2.5c-0.6-1-1.1-2.1-1.4-3.4c-0.3-1.2-0.5-2.5-0.5-3.7c0-1.2,0.1-2.4,0.2-3.8c0.2-1.4,0.4-2.7,0.8-4.1
		c0.3-1.4,0.8-2.7,1.4-4c0.6-1.3,1.3-2.4,2.1-3.4c0.8-1,1.8-1.8,2.9-2.4c1.1-0.6,2.4-0.9,3.9-0.9c1.7,0,3,0.6,4,1.6
		c1,1.1,1.6,2.4,2,3.9l-1,0.4c-0.2-0.4-0.4-0.8-0.5-1.2c-0.1-0.4-0.3-0.8-0.5-1.2c-0.2-0.4-0.5-0.7-0.8-0.9
		c-0.3-0.2-0.8-0.4-1.3-0.4c-0.9,0-1.7,0.3-2.3,0.9c-0.7,0.6-1.3,1.3-1.8,2.2c-0.5,0.9-0.9,2-1.2,3.1c-0.3,1.2-0.6,2.3-0.8,3.4
		c-0.2,1.1-0.3,2.2-0.4,3.2c-0.1,1-0.1,1.9-0.1,2.5c0,0.6,0,1.3,0,2.2c0,0.9,0.1,1.8,0.3,2.6c0.2,0.8,0.5,1.6,1,2.2
		c0.4,0.6,1.1,0.9,1.9,0.9c0.9,0,1.7-0.5,2.5-1.6c0.7-1,1.4-2.3,1.9-3.9c0.6-1.6,1.1-3.3,1.5-5.1c0.5-1.8,0.9-3.5,1.3-5.1
		c0.4-1.6,0.8-2.9,1.1-3.9c0.4-1,0.7-1.6,1.1-1.6c1.1,0,2.1,0.4,2.9,1.2c0.8,0.8,1.2,1.8,1.2,2.9c0,1.8-0.1,3.7-0.1,5.5
		c-0.1,1.8-0.1,3.7-0.1,5.5c0,0.3,0,1,0,2.2c0,1.1,0,2.3,0.1,3.5c0.1,1.2,0.3,2.3,0.5,3.3c0.2,1,0.6,1.4,1.1,1.4
		c0.4,0,0.8-0.4,1.3-1.3c0.5-0.9,1-1.8,1.5-3c0.5-1.1,1-2.2,1.4-3.3c0.4-1.1,0.7-1.9,0.9-2.4l1.7-4L109.6,50.4z"/>
	<path d="M138.1,50.5c-1.3,2.7-2.4,5-3.4,7c-1,2-1.8,3.6-2.6,5c-0.7,1.4-1.4,2.6-1.9,3.5c-0.5,0.9-1,1.7-1.4,2.3
		c-0.4,0.6-0.9,1-1.3,1.4c-0.5,0.4-0.9,0.5-1.2,0.5c-1,0-1.8-0.4-2.5-1.1c-0.6-0.7-1.1-1.7-1.5-2.9c-0.4-1.2-0.6-2.6-0.8-4.1
		c-0.1-1.5-0.2-3.1-0.2-4.8c0-2.2,0.1-4.4,0.3-6.6c0.2-2.2,0.3-4.4,0.3-6.7c0-2.3-0.1-4.1-0.4-5.6c-0.3-1.4-0.9-2.2-1.8-2.2
		c-0.4,0-0.8,0.8-1.4,2.5c-0.6,1.7-1.2,3.8-1.9,6.3c-0.4,1.2-0.8,2.6-1.2,4c-0.4,1.4-0.9,2.9-1.3,4.3c-0.5,1.5-0.9,2.9-1.4,4.3
		c-0.5,1.4-1,2.7-1.5,3.9c-0.4,0.7-1,1.1-1.7,1.2c-0.7,0.1-1.3,0.2-1.8,0.1c-0.5-0.1-0.9-0.3-1.1-0.6c-0.3-0.3-0.5-0.6-0.6-1.1
		c-0.1-0.5-0.2-1.1-0.3-1.8c-0.1-0.7-0.1-1.7-0.1-2.8c0-0.2,0-0.8,0-1.7c0-0.9,0-1.9,0-3.1c0-1.2,0.1-2.4,0.1-3.8
		c0.1-1.3,0.2-2.5,0.4-3.6c0.2-1.1,0.4-2,0.7-2.7c0.3-0.7,0.7-1.1,1.2-1.1c1,0,1.7,0.1,2.3,0.3c0.6,0.2,1,0.5,1.2,0.9
		c0.3,0.4,0.4,1,0.5,1.6c0.1,0.7,0.1,1.6,0.1,2.5l0.1,8.8c0.4-1.4,0.8-2.6,1.1-3.5c0.3-1,0.5-1.8,0.7-2.5c0.2-0.7,0.4-1.2,0.5-1.7
		c0.1-0.5,0.2-0.9,0.4-1.4c0.9-3,1.6-5.4,2.2-7.3c0.6-1.8,1.2-3.3,1.8-4.3c0.6-1,1.2-1.7,1.9-2c0.7-0.3,1.5-0.5,2.5-0.5
		c1.3,0,2.3,0.3,3.1,0.9c0.8,0.6,1.4,1.4,1.8,2.3c0.4,1,0.7,2.1,0.9,3.3c0.1,1.2,0.2,2.5,0.2,3.7c0,3.7-0.1,7.4-0.4,11
		c-0.2,3.6-0.3,7.4-0.2,11.4c0.2,0.8,0.8,0.1,2-2.1c1.2-2.2,3.2-6.2,6-11.8L138.1,50.5z"/>
	<path d="M168.8,50.6c-1.2,2.2-2.4,4.1-3.7,5.8c-1.3,1.7-2.7,3.3-4.3,4.8c-0.6,0.6-1.2,1.1-1.8,1.6c-0.6,0.5-1.3,1.1-2,1.6
		c0,1.4,0,3.5-0.1,6.1s-0.3,5.4-0.6,8.4c-0.3,3-0.8,6.1-1.4,9.2c-0.6,3.1-1.4,5.9-2.5,8.5c-1.1,2.5-2.4,4.6-4.1,6.2
		c-1.6,1.6-3.6,2.4-5.9,2.4c-1.4,0-2.6-0.3-3.5-1c-0.9-0.7-1.5-1.5-1.9-2.5s-0.7-2.2-0.8-3.4c-0.1-1.2-0.2-2.4-0.2-3.5
		c0-2.7,0.4-5.4,1.2-8.1c0.8-2.7,1.8-5.2,3.1-7.7c1.3-2.5,2.8-4.8,4.5-7c1.7-2.2,3.5-4.2,5.4-6.1l0.2-3.4v-5.7
		c-0.3,0.9-0.7,1.8-1.1,2.7c-0.4,0.9-1,1.8-1.6,2.6c-0.6,0.8-1.3,1.4-2.1,1.9c-0.8,0.5-1.7,0.8-2.8,0.8c-2.4,0-4.3-0.7-5.6-2.2
		c-1.3-1.4-2.2-3.2-2.7-5.4c-0.4-2.2-0.5-4.5-0.1-7c0.4-2.5,1.1-4.9,2.2-7.1c1.1-2.2,2.4-4,4.1-5.4c1.6-1.4,3.5-2.2,5.6-2.2
		c1.2,0,2.3,0.3,3.3,1c1,0.7,1.8,1.5,2.5,2.5c0.2-0.3,0.5-0.6,0.9-0.8c0.4-0.2,0.8-0.4,1.2-0.4c0.5,0,1,0.1,1.5,0.4
		c0.5,0.3,0.9,0.6,1.3,0.9L157,62.3c2.2-1.4,4.2-3.2,5.9-5.3c1.7-2.1,3.2-4.3,4.6-6.4H168.8z M137.4,95.1c0,0.3,0,0.9,0,1.7
		c0.1,0.8,0.2,1.7,0.4,2.5c0.2,0.8,0.5,1.6,0.9,2.2c0.4,0.7,0.9,1,1.5,1c1.4,0,2.6-0.7,3.6-2.2c1-1.5,1.9-3.3,2.6-5.6
		c0.7-2.3,1.3-4.8,1.8-7.6c0.5-2.8,0.8-5.5,1.1-8.1c0.3-2.6,0.5-5,0.7-7.1c0.1-2.1,0.2-3.7,0.3-4.6c-1.8,1.8-3.4,3.7-5,5.9
		s-2.9,4.4-4.1,6.8c-1.2,2.4-2.1,4.9-2.8,7.4C137.8,90.1,137.4,92.6,137.4,95.1z M142.4,61.2c0.8,0.8,1.6,1.2,2.4,1
		c0.8-0.2,1.5-0.7,2.2-1.7c0.4-0.5,0.7-1.1,1-1.7c0.3-0.6,0.6-1.2,0.9-1.8c0.3-0.6,0.5-1.1,0.7-1.6c0.2-0.5,0.3-0.9,0.4-1.1
		c0.2-0.8,0.3-1.7,0.3-2.8s0-2.2,0.1-3.5c0-1.2,0.1-2.5,0.2-3.8c0.1-1.3,0.4-2.5,0.8-3.7l0.1-0.1c-0.6-0.6-1.1-1.3-1.7-1.9
		c-0.6-0.6-1.3-0.9-2.2-0.9c-1,0-1.9,0.5-2.8,1.4c-0.8,0.9-1.6,2.2-2.2,3.6c-0.6,1.5-1.1,3.1-1.5,4.9c-0.4,1.8-0.6,3.6-0.6,5.3
		c-0.1,1.8,0.1,3.4,0.4,4.9C141.2,59.2,141.7,60.4,142.4,61.2z"/>
	<path d="M174.8,35.3c0.8,0,1.5,0.1,2.3,0.3c0.8,0.2,1.5,0.5,2.2,0.9c0.7,0.4,1.2,0.9,1.6,1.5c0.4,0.6,0.6,1.4,0.6,2.2
		c0,1.3-0.4,2.5-1.3,3.5c-0.9,1-1.9,1.9-3.2,2.6c-1.3,0.7-2.6,1.3-4,1.7c-1.4,0.4-2.6,0.7-3.7,0.9c-0.4,0.6-0.6,1.3-0.6,2.2
		s0,1.9,0.2,2.9s0.5,2.1,0.9,3.1c0.4,1.1,0.9,2,1.5,2.9c0.6,0.9,1.2,1.6,1.9,2.1c0.7,0.5,1.4,0.8,2.2,0.8c1.1,0,2.2-0.5,3.3-1.4
		c1.1-1,2.1-2.1,3.1-3.5c1-1.4,1.8-2.7,2.5-4.1c0.7-1.4,1.3-2.6,1.6-3.5l1.4,0.1c-0.6,1.5-1.3,3.1-2.2,4.9c-0.9,1.8-2,3.4-3.2,4.9
		c-1.2,1.5-2.6,2.8-4.2,3.8c-1.5,1-3.2,1.5-5.1,1.5c-1.8,0-3.3-0.4-4.6-1.3c-1.3-0.9-2.4-2-3.2-3.3c-0.9-1.3-1.5-2.8-1.9-4.4
		c-0.4-1.6-0.6-3.2-0.6-4.7c0-1.7,0.3-3.5,0.8-5.4c0.6-1.9,1.4-3.7,2.4-5.4c1.1-1.6,2.4-3,3.9-4.1C171.1,35.9,172.8,35.3,174.8,35.3
		z M176.9,37.6c-0.7,0-1.5,0.4-2.3,1.1c-0.8,0.8-1.6,1.7-2.3,2.7c-0.7,1.1-1.3,2.1-1.8,3.2c-0.5,1.1-0.8,2-0.8,2.7l0.1,0.1
		c0.9,0,1.9-0.2,3.1-0.5c1.2-0.4,2.4-0.9,3.5-1.5c1.1-0.7,2-1.4,2.8-2.3c0.8-0.9,1.1-1.9,1.1-2.9c0-0.9-0.4-1.5-1-1.9
		C178.4,37.8,177.7,37.6,176.9,37.6z"/>
	<path d="M225.5,13.5c1.6,0,3,0.3,4.3,0.9c1.3,0.6,2.4,1.4,3.3,2.4c0.9,1,1.6,2.2,2.1,3.6c0.5,1.4,0.7,2.8,0.7,4.3
		c0,0.8-0.1,1.6-0.3,2.4c-0.2,0.8-0.5,1.5-1,2.1c-0.4,0.6-1,1.1-1.6,1.5c-0.7,0.4-1.5,0.6-2.4,0.6c-0.8,0-1.7-0.2-2.5-0.5
		c-0.8-0.3-1.5-0.7-2.2-1.2l0.7-1.2c0.6,0.3,1.1,0.6,1.8,1c0.6,0.3,1.2,0.5,1.9,0.5c0.7,0,1.4-0.2,1.9-0.5c0.5-0.3,1-0.7,1.3-1.2
		c0.3-0.5,0.6-1.1,0.7-1.7c0.2-0.6,0.2-1.2,0.2-1.9c0-0.7-0.1-1.5-0.3-2.3c-0.2-0.8-0.5-1.5-0.9-2.2c-0.4-0.7-0.9-1.2-1.5-1.7
		s-1.3-0.7-2.2-0.7c-2.1,0-4,0.6-5.6,1.7c-1.7,1.1-3.1,2.6-4.4,4.4c-1.2,1.8-2.3,3.9-3.2,6.2c-0.9,2.3-1.6,4.6-2.2,7
		c-0.6,2.4-1,4.6-1.2,6.8c-0.2,2.2-0.4,4.1-0.4,5.6c0,2.4,0.2,4.9,0.7,7.6c0.4,2.7,1.2,5.2,2.3,7.4c1.1,2.3,2.6,4.1,4.6,5.6
		c1.9,1.5,4.4,2.2,7.4,2.2c1.6,0,3-0.4,4.3-1.1c1.2-0.8,2.3-1.8,3.3-3c0.9-1.2,1.7-2.6,2.4-4.2c0.7-1.6,1.3-3.2,1.7-4.8
		c0.5-1.6,0.9-3.2,1.2-4.7c0.3-1.5,0.6-2.9,0.8-4.1l1.4-0.2c-0.3,2.1-0.7,4.3-1.3,6.5c-0.5,2.2-1.2,4.4-2,6.5
		c-0.8,2.1-1.8,4.1-2.9,6c-1.2,1.9-2.5,3.5-4.1,5c-1.6,1.4-3.4,2.5-5.4,3.4c-2,0.8-4.4,1.3-7,1.3c-2.3,0-4.4-0.5-6.1-1.4
		c-1.8-0.9-3.3-2.1-4.6-3.6c-1.3-1.5-2.3-3.3-3.1-5.2c-0.8-2-1.5-4-2-6.1c-0.5-2.1-0.9-4.2-1-6.3c-0.2-2.1-0.3-4.1-0.3-5.9
		c0-2.3,0.2-4.8,0.5-7.5c0.3-2.7,0.8-5.4,1.5-8.2c0.7-2.7,1.6-5.4,2.7-7.9c1.1-2.5,2.5-4.8,4.2-6.8s3.6-3.6,5.9-4.7
		C220,14.1,222.6,13.5,225.5,13.5z"/>
	<path d="M258.6,49.3c0,0.8,0,1.6-0.1,2.2c-0.1,0.7-0.2,1.4-0.4,2.2c1.3,0,2.4-0.3,3.3-1c0.9-0.6,1.8-1.4,2.5-2.3l1.4,0.1
		c-0.9,1.2-2,2.3-3.2,3.2c-1.3,1-2.8,1.4-4.4,1.4c-0.4,1-1,2.2-1.6,3.5c-0.6,1.3-1.4,2.5-2.2,3.6c-0.8,1.1-1.8,2.1-2.9,2.8
		c-1.1,0.8-2.3,1.1-3.7,1.1c-2,0-3.6-0.5-4.7-1.5c-1.1-1-1.9-2.2-2.4-3.8c-0.5-1.5-0.8-3.1-1-4.8c-0.1-1.7-0.2-3.3-0.2-4.8
		c0-0.4,0-1,0.1-1.7c0.1-0.8,0.2-1.6,0.4-2.5c0.2-0.9,0.4-1.8,0.7-2.7c0.3-0.9,0.6-1.7,0.9-2.5c0.4-0.7,0.8-1.4,1.2-1.8
		c0.4-0.5,0.9-0.7,1.4-0.7c0.4,0,0.7,0.1,1.1,0.4c0.4,0.3,0.7,0.7,1,1.1s0.6,0.9,0.8,1.3c0.2,0.5,0.4,0.8,0.5,1.1
		c-0.1-0.8-0.1-1.6-0.1-2.6c0-0.9,0.2-1.7,0.5-2.5c0.3-0.8,0.7-1.4,1.3-1.9c0.6-0.5,1.4-0.8,2.4-0.8c1.4,0,2.6,0.5,3.6,1.5
		c0.9,1,1.7,2.2,2.3,3.7c0.6,1.4,1,2.9,1.2,4.4C258.5,46.9,258.6,48.2,258.6,49.3z M256.2,54.9c-4.6-2.2-7.6-5.8-8.9-10.7v0.1
		c-0.5,1.5-0.8,3-1.1,4.5c-0.2,1.5-0.4,3.1-0.4,4.8c0,0.5,0,1.3,0.1,2.4c0.1,1.1,0.2,2.2,0.4,3.3c0.2,1.1,0.6,2.1,1,2.9
		c0.4,0.8,1.1,1.3,1.9,1.3c0.8,0,1.5-0.3,2.2-1c0.7-0.7,1.4-1.5,2-2.4c0.6-0.9,1.1-1.9,1.6-2.9C255.6,56.3,256,55.5,256.2,54.9z
		 M248.5,41.7c0,1.3,0.2,2.5,0.6,3.8c0.4,1.2,1,2.4,1.7,3.4c0.7,1,1.6,2,2.6,2.8c1,0.8,2.1,1.5,3.2,1.9c0.2-0.7,0.4-1.4,0.4-2.2
		c0-0.8,0.1-1.5,0.1-2.2c0-0.8-0.1-1.9-0.3-3.3c-0.2-1.3-0.5-2.7-1-4c-0.5-1.3-1.1-2.4-1.8-3.3c-0.8-0.9-1.7-1.4-2.8-1.4
		c-0.7,0-1.2,0.1-1.6,0.4c-0.4,0.3-0.6,0.6-0.8,1.1c-0.2,0.4-0.3,0.9-0.4,1.5C248.5,40.7,248.5,41.2,248.5,41.7z"/>
	<path d="M295.6,50.7c-0.4,1.2-0.9,2.6-1.5,4.2c-0.6,1.6-1.2,3.3-1.9,5c-0.7,1.7-1.4,3.4-2.1,5c-0.7,1.6-1.4,3-2,4.1
		c-0.3,0.5-0.7,1-1.1,1.7c-0.5,0.6-1,1.3-1.5,1.9c-0.6,0.6-1.2,1.1-1.8,1.5c-0.6,0.4-1.3,0.6-1.9,0.6c-1,0-1.8-0.3-2.4-0.9
		c-0.6-0.6-1.1-1.3-1.5-2.2c-0.4-0.8-0.6-1.7-0.8-2.7c-0.1-0.9-0.2-1.8-0.2-2.5c0-1.8,0.1-3.6,0.3-5.4c0.2-1.8,0.4-3.6,0.7-5.4
		l0.4-2.5l0.4-1.9c-0.6,1.4-1.4,3-2.3,4.6c-0.9,1.7-1.9,3.2-3,4.7c-1.1,1.4-2.4,2.6-3.7,3.6c-1.3,1-2.8,1.4-4.2,1.4
		c-1,0-1.9-0.3-2.4-1c-0.6-0.6-1-1.4-1.4-2.3c-0.3-0.9-0.5-1.9-0.6-2.9c-0.1-1-0.1-1.9-0.1-2.6c0-0.5,0-1.3,0.2-2.3
		c0.1-1,0.3-2.1,0.5-3.3c0.2-1.2,0.5-2.4,0.8-3.7c0.3-1.2,0.7-2.4,1.1-3.4s0.9-1.9,1.4-2.5c0.5-0.6,1.1-1,1.7-1
		c1.3,0,2.2,0.2,2.7,0.6s0.7,1,0.7,1.7c0,0.7-0.2,1.6-0.5,2.6c-0.3,1-0.7,2-0.9,3.1c-0.1,0.4-0.2,1-0.3,1.8
		c-0.1,0.8-0.3,1.7-0.4,2.6c-0.1,1-0.2,2-0.3,3c-0.1,1-0.1,2,0,2.8c0.1,0.8,0.2,1.5,0.4,2.1c0.2,0.5,0.5,0.8,1,0.8
		c0.8,0,1.6-0.5,2.5-1.5c0.9-1,1.8-2.2,2.6-3.6c0.8-1.4,1.6-2.9,2.4-4.4c0.7-1.6,1.4-2.9,1.9-4.1c0-0.1,0.1-0.4,0.3-0.8
		c0.1-0.5,0.3-1,0.5-1.7c0.2-0.7,0.4-1.4,0.6-2.1c0.2-0.7,0.4-1.4,0.7-2c0.2-0.6,0.4-1.1,0.6-1.6s0.3-0.6,0.4-0.6
		c0.3,0,0.7,0,1.2,0.1c0.5,0.1,1,0.2,1.6,0.3c0.5,0.1,1,0.4,1.3,0.6c0.4,0.3,0.5,0.7,0.5,1.1c0,0.9-0.1,2-0.2,3.4
		c-0.1,1.4-0.3,2.8-0.5,4.2s-0.4,2.8-0.5,4.2c-0.2,1.3-0.3,2.4-0.4,3.3c0,0.2-0.1,0.6-0.2,1.4c-0.1,0.8-0.2,1.7-0.3,2.7
		c-0.1,1-0.2,2.1-0.4,3.2c-0.1,1.1-0.2,2.2-0.2,3.1c0,1,0,1.8,0.1,2.4c0.1,0.6,0.3,1,0.7,1c0.4,0,0.9-0.4,1.5-1.1
		c0.6-0.7,1.2-1.6,1.8-2.8c0.6-1.2,1.2-2.4,1.9-3.9c0.6-1.4,1.3-2.9,1.9-4.3c0.6-1.5,1.1-2.9,1.6-4.2c0.5-1.3,0.9-2.5,1.3-3.5
		L295.6,50.7z"/>
	<path d="M324.2,50.5c-1.3,2.7-2.4,5-3.4,7c-1,2-1.8,3.6-2.6,5c-0.7,1.4-1.4,2.6-1.9,3.5c-0.5,0.9-1,1.7-1.4,2.3
		c-0.4,0.6-0.9,1-1.3,1.4c-0.5,0.4-0.9,0.5-1.2,0.5c-1,0-1.8-0.4-2.5-1.1c-0.6-0.7-1.1-1.7-1.5-2.9c-0.4-1.2-0.6-2.6-0.8-4.1
		c-0.1-1.5-0.2-3.1-0.2-4.8c0-2.2,0.1-4.4,0.3-6.6c0.2-2.2,0.3-4.4,0.3-6.7c0-2.3-0.1-4.1-0.4-5.6c-0.3-1.4-0.9-2.2-1.8-2.2
		c-0.4,0-0.8,0.8-1.4,2.5c-0.6,1.7-1.2,3.8-1.9,6.3c-0.4,1.2-0.8,2.6-1.2,4c-0.4,1.4-0.9,2.9-1.3,4.3c-0.5,1.5-0.9,2.9-1.4,4.3
		c-0.5,1.4-1,2.7-1.5,3.9c-0.4,0.7-1,1.1-1.7,1.2c-0.7,0.1-1.3,0.2-1.8,0.1c-0.5-0.1-0.9-0.3-1.1-0.6c-0.3-0.3-0.5-0.6-0.6-1.1
		c-0.1-0.5-0.2-1.1-0.3-1.8c-0.1-0.7-0.1-1.7-0.1-2.8c0-0.2,0-0.8,0-1.7c0-0.9,0-1.9,0-3.1c0-1.2,0.1-2.4,0.1-3.8
		c0.1-1.3,0.2-2.5,0.4-3.6c0.2-1.1,0.4-2,0.7-2.7c0.3-0.7,0.7-1.1,1.2-1.1c1,0,1.7,0.1,2.3,0.3c0.6,0.2,1,0.5,1.2,0.9
		c0.3,0.4,0.4,1,0.5,1.6c0.1,0.7,0.1,1.6,0.1,2.5l0.1,8.8c0.4-1.4,0.8-2.6,1.1-3.5c0.3-1,0.5-1.8,0.7-2.5c0.2-0.7,0.4-1.2,0.5-1.7
		c0.1-0.5,0.2-0.9,0.4-1.4c0.9-3,1.6-5.4,2.2-7.3c0.6-1.8,1.2-3.3,1.8-4.3c0.6-1,1.2-1.7,1.9-2c0.7-0.3,1.5-0.5,2.5-0.5
		c1.3,0,2.3,0.3,3.1,0.9c0.8,0.6,1.4,1.4,1.8,2.3c0.4,1,0.7,2.1,0.9,3.3c0.1,1.2,0.2,2.5,0.2,3.7c0,3.7-0.1,7.4-0.4,11
		c-0.2,3.6-0.3,7.4-0.2,11.4c0.2,0.8,0.8,0.1,2-2.1c1.2-2.2,3.2-6.2,6-11.8L324.2,50.5z"/>
	<path d="M332,66.1c0.5,0,1-0.2,1.4-0.7c0.5-0.4,1-1,1.4-1.7c0.5-0.8,1-1.6,1.5-2.7c0.5-1,1-2.1,1.4-3.1c0.5-1.1,0.9-2.1,1.2-3.1
		c0.4-1,0.7-1.9,1-2.7l0.7-2.2h1.5l-0.5,1.6c-0.4,1-0.8,2.2-1.2,3.6c-0.5,1.4-1,2.9-1.7,4.4c-0.4,0.8-0.8,1.8-1.4,2.9
		c-0.5,1.1-1.2,2.2-1.9,3.3c-0.7,1.1-1.6,2-2.5,2.7c-0.9,0.8-1.9,1.1-3,1.1c-1.9,0-3.5-0.5-4.7-1.6c-1.3-1-2.3-2.4-3-4.1
		c-0.8-1.7-1.3-3.7-1.6-5.9c-0.3-2.2-0.5-4.5-0.5-6.8c0-3,0.1-6.1,0.4-9.2c0.3-3.1,0.5-5.9,0.9-8.4c0.2-1.6,0.4-3,0.6-4.2
		c0.2-1.2,0.3-2.2,0.3-3v-0.1c-0.6-0.2-1.3-0.4-2-0.6c-0.7-0.2-1.3-0.2-1.9-0.2c-1.5,0-2.8,0.4-3.8,1.2c-0.6,0.4-0.9,1-1.2,1.8
		c-0.2,0.8-0.3,1.8-0.3,3.1l-1.2,0.1c-0.2-1.7,0-3.1,0.5-4.1c0.6-1,1.3-1.8,2.3-2.3c1-0.6,2.3-0.8,3.7-0.8c0.6,0,1.2,0,1.9,0.1
		s1.4,0.2,2.3,0.5c0.1-0.4,0.2-1.1,0.4-2.2c0.1-0.6,0.2-1.3,0.4-2c0.1-0.7,0.3-1.4,0.5-2c0.2-0.6,0.3-1.1,0.5-1.5
		c0.2-0.4,0.4-0.6,0.7-0.6c0.6,0,1.1,0.1,1.7,0.3c0.6,0.2,1.1,0.5,1.5,0.8c0.4,0.4,0.8,0.8,1.1,1.3c0.3,0.5,0.4,1,0.4,1.6
		c0,0.7-0.1,1.4-0.1,2c-0.1,0.7-0.2,1.3-0.3,2c-0.2,0.7-0.2,1.2-0.2,1.7l1.7,0.5c0.8,0.2,1.7,0.4,2.5,0.4c1.1,0,2.1-0.2,2.8-0.6
		c0.5-0.3,0.9-0.7,1.4-1.2c0.4-0.5,0.9-1,1.3-1.5l0.7-1l1.5,0.1c-0.2,0.2-0.4,0.4-0.5,0.5c-0.1,0.2-0.3,0.4-0.5,0.8
		c-0.4,0.6-0.9,1.1-1.3,1.6c-0.4,0.5-0.9,1-1.5,1.4c-0.5,0.4-1.1,0.7-1.9,0.9c-0.7,0.2-1.5,0.3-2.3,0.3c-0.6,0-1.2-0.1-1.9-0.2
		c-0.7-0.1-1.4-0.3-2.2-0.5v-0.1c0,0-0.1,0.1-0.1,0.3c-0.1,0.6-0.3,1.6-0.5,3.2c-0.2,1.5-0.4,3.3-0.7,5.4c-0.2,2.1-0.4,4.3-0.6,6.8
		c-0.2,2.4-0.2,4.8-0.2,7.2c0,2,0.1,4,0.2,5.9c0.2,1.9,0.4,3.5,0.8,5c0.4,1.4,0.9,2.6,1.5,3.4C330.2,65.7,331,66.1,332,66.1z"/>
	<path d="M364.3,49.1c0,1.8,0,3.6-0.1,5.4c-0.1,1.8-0.2,3.6-0.5,5.4c2-1.2,3.5-2.5,4.7-4c1.2-1.5,2.2-3.3,3.1-5.3l1.3-0.4
		c-0.6,2.5-1.7,4.8-3.4,6.8c-1.7,2-3.7,3.6-5.9,4.8c0,1.4-0.1,3.4-0.4,6c-0.3,2.6-0.7,5.6-1.2,8.7c-0.5,3.2-1.2,6.4-2,9.8
		c-0.8,3.3-1.8,6.4-2.9,9.1c-1.1,2.7-2.4,5-3.8,6.7c-1.4,1.7-3,2.6-4.8,2.6c-1.5,0-2.7-0.4-3.7-1.3s-1.7-1.9-2.3-3.1
		c-0.6-1.2-1-2.6-1.2-4c-0.2-1.4-0.3-2.7-0.3-3.8c0-2.8,0.4-5.7,1.1-8.6c0.8-2.9,1.8-5.8,3.2-8.5c1.4-2.7,3.1-5.2,5.1-7.4
		s4.2-4.1,6.7-5.5c0.1-2.2,0.3-4.3,0.4-6.4c0.2-2.1,0.2-4.2,0.2-6.4v-0.8c-0.3,1.4-0.7,3-1.3,4.9c-0.6,1.8-1.4,3.6-2.4,5.2
		c-1,1.6-2.2,3-3.5,4.1c-1.4,1.1-2.9,1.7-4.6,1.7c-1.6,0-2.8-0.4-3.7-1.2c-0.9-0.8-1.6-1.7-2.2-2.9c-0.5-1.2-0.9-2.4-1-3.8
		c-0.2-1.4-0.2-2.7-0.2-3.9c0-0.6,0.1-1.4,0.3-2.5c0.2-1.1,0.4-2.4,0.8-3.7c0.3-1.3,0.7-2.7,1.1-4.1c0.4-1.4,0.9-2.7,1.5-3.9
		c0.5-1.2,1.1-2.1,1.7-2.8c0.6-0.7,1.3-1.1,1.9-1.1c0.3,0,0.6,0.1,1,0.2c0.4,0.1,0.8,0.2,1.1,0.4c0.3,0.2,0.6,0.4,0.9,0.7
		c0.2,0.3,0.4,0.6,0.4,1c0,0.9-0.2,1.9-0.6,2.9c-0.4,1.1-0.9,2.3-1.4,3.8c-0.5,1.4-1,3.1-1.4,5c-0.4,1.9-0.6,4.1-0.6,6.6
		c0,0.5,0,1.1,0,1.8c0,0.7,0.1,1.4,0.3,2.1c0.2,0.7,0.4,1.3,0.8,1.8c0.4,0.5,0.9,0.7,1.6,0.7c1,0,2-0.3,2.7-1
		c0.8-0.6,1.5-1.5,2.1-2.5c0.6-1.1,1.1-2.2,1.5-3.6c0.4-1.3,0.8-2.6,1.2-4c0.4-1.3,0.7-2.6,1.1-3.9c0.3-1.3,0.7-2.4,1.1-3.3
		c0.4-1.1,1.1-1.8,1.9-1.9c0.8-0.2,1.7,0,2.5,0.5c0.6,0.4,1,0.9,1.4,1.5c0.3,0.6,0.5,1.3,0.6,2c0.1,0.7,0.2,1.4,0.2,2
		C364.3,48.1,364.3,48.6,364.3,49.1z M342.6,92.8c0,0.6,0,1.3,0.1,2.2c0.1,0.9,0.2,1.7,0.4,2.6c0.2,0.8,0.5,1.6,0.9,2.3
		c0.4,0.7,0.9,1.2,1.6,1.5c0.9-0.2,1.7-1.2,2.6-2.8c0.8-1.6,1.6-3.7,2.4-6c0.8-2.4,1.5-5,2.2-7.9c0.7-2.9,1.3-5.6,1.8-8.3
		c0.5-2.7,1-5.1,1.4-7.3c0.4-2.2,0.7-3.8,0.9-4.9c-2.3,1.4-4.3,3.2-6.1,5.4c-1.8,2.2-3.3,4.6-4.5,7.1c-1.2,2.6-2.1,5.3-2.8,8
		C342.9,87.5,342.6,90.2,342.6,92.8z"/>
	<path d="M451.6,67.2c-0.7,1.7-1.4,3.5-2.2,5.5c-0.8,1.9-1.6,3.8-2.4,5.5c-0.8,1.7-1.6,3.2-2.5,4.4c-0.8,1.2-1.6,2-2.3,2.2
		c-1.6,0.6-3,0.7-4.2,0.3c-1.2-0.4-2.3-1.2-3.2-2.4c-0.9-1.2-1.7-2.7-2.3-4.5c-0.6-1.8-1.2-3.9-1.6-6.2c-0.5-2.7-0.9-5.7-1.1-8.9
		c-0.2-3.2-0.4-6.4-0.4-9.7c0-3.2,0-6.4,0.1-9.5c0.1-3.1,0.2-5.9,0.3-8.5c0.1-2.5,0.3-4.7,0.4-6.5c0.1-1.8,0.2-3.1,0.3-3.8
		c0.1-2,0-3.5-0.3-4.7c-0.3-1.2-0.8-1.9-1.3-2.2c-0.6-0.3-1.2,0-2,0.7c-0.7,0.7-1.5,2.1-2.2,4c-0.4,1.1-0.9,2.3-1.3,3.7
		c-0.4,1.4-0.9,2.8-1.3,4.3c-0.4,1.5-0.8,2.9-1.2,4.4s-0.7,2.8-1,4c-0.3,1.2-0.6,2.3-0.8,3.2c-0.2,0.9-0.4,1.5-0.5,1.8
		c-0.2,0.4-0.5,0.7-0.8,1c-0.3,0.3-0.7,0.6-1.1,0.8c-0.4,0.2-0.9,0.3-1.4,0.2c-0.5,0-1-0.2-1.5-0.6c0-1-0.1-2.3-0.2-3.8
		c-0.1-1.6-0.1-3.2-0.2-5c-0.1-1.7-0.2-3.5-0.3-5.3c-0.1-1.8-0.3-3.5-0.5-5c-0.2-1.5-0.5-2.8-0.8-3.9c-0.3-1.1-0.6-1.7-1-2.1
		c-0.3,0.1-0.6,0.4-0.9,1c-0.3,0.6-0.7,1.4-1.1,2.2c-0.4,0.9-0.8,1.8-1.1,2.9c-0.4,1-0.7,2-1,2.9c-0.3,0.9-0.5,1.6-0.7,2.2
		c-0.2,0.6-0.3,1-0.3,1c0,2.1,0,4.7,0,7.7c0,3-0.1,6.1-0.4,9.2c-0.3,3.2-0.8,6.2-1.4,9.2c-0.7,3-1.6,5.5-3,7.7
		c-1.1,1.9-2.5,3.3-4.2,4.3c-0.7,0.4-1.3,0.5-2,0.5s-1.2-0.1-1.7-0.4c-0.5-0.3-1-0.7-1.3-1.3c-0.4-0.6-0.6-1.2-0.8-2V68
		c-0.2-1-0.2-2.3,0-3.8s0.6-3.1,1.1-4.7c0.5-1.6,1.1-3.3,1.7-4.9c0.6-1.6,1.2-3,1.8-4.3c0.6-1.3,1.1-2.2,1.4-3s0.6-1,0.6-1
		c0.1-1.8,0.2-3.8,0.2-6.1c0.1-2.3,0.1-4.5,0.1-6.8c0-2-0.1-4-0.2-5.9c-0.1-1.9-0.4-3.5-0.8-4.9v0.1c-0.9-2.6-2.2-3.9-3.8-3.9
		c-0.8,0-1.4,0.2-2,0.5c-0.5,0.3-1,0.8-1.3,1.4c-0.3,0.6-0.5,1.2-0.5,1.9c-0.1,0.7,0,1.4,0.3,2.1h-0.1c0.7,1.4,1.9,2.6,3.6,3.5
		l-0.8,1c-0.8-0.4-1.6-1-2.3-1.7c-0.7-0.7-1.3-1.4-1.6-2.2c-0.4-1-0.6-1.9-0.5-2.9c0.1-1,0.4-1.9,0.9-2.7c0.5-0.8,1.2-1.4,2.1-2
		c0.9-0.5,1.9-0.8,2.9-0.8c1.3,0,2.6,0.2,3.9,0.6c1.3,0.4,2.5,1.1,3.5,2.1c0.5,0.5,0.9,0.9,1.2,1.3c0.3,0.4,0.6,0.8,0.8,1.2
		c0.2,0.4,0.4,0.9,0.6,1.4c0.2,0.5,0.3,1,0.5,1.6c0.3,1,0.4,1.9,0.5,2.8c0,0.9,0.1,1.3,0.2,1.4c0.1,0.1,0.2,0,0.3-0.3
		c0.1-0.3,0.3-0.6,0.4-1.1c0.2-0.5,0.3-1,0.5-1.5c0.2-0.6,0.3-1.1,0.5-1.6c0.6-1.5,1.2-2.9,1.8-4.1c0.6-1.2,1.5-2,2.6-2.5
		s2.2-0.6,3.2-0.2c1,0.3,1.9,0.9,2.7,1.6c0.8,0.8,1.4,1.7,1.9,2.8c0.5,1.1,0.8,2.2,0.8,3.2l0.1,1.8c0,0.7,0.1,1.4,0.1,2
		c0,0.7,0,1.4,0,2.1c0.6-2.2,1.2-4.2,1.7-6c0.5-1.8,1-3.5,1.7-4.9c0.5-1.2,1.2-2.3,2-3.3c0.8-1,1.7-1.8,2.7-2.4c1-0.6,1.9-1,2.9-1.2
		c1-0.2,1.9-0.1,2.8,0.3c0.9,0.4,1.7,1.1,2.4,2c0.7,1,1.2,2.4,1.5,4.1c0.2,0.8,0.3,1.7,0.3,2.7c0,1,0,1.9,0,2.9c0,1-0.1,2-0.2,2.9
		c-0.1,1-0.1,1.8-0.2,2.6c-0.1,1.2-0.2,2.8-0.2,4.7c-0.1,1.9-0.2,4-0.2,6.3c-0.1,2.3-0.1,4.8-0.1,7.4s0,5.2,0.1,7.7
		c0.1,2.6,0.2,5.1,0.3,7.5c0.2,2.4,0.4,4.7,0.7,6.7c0.3,2.2,0.6,4,1.1,5.5c0.4,1.5,0.9,2.6,1.4,3.2c0.5,0.7,1.1,0.9,1.7,0.8
		c0.6-0.2,1.3-0.8,2-1.9c0.1-0.2,0.4-0.7,0.7-1.5c0.4-0.8,0.8-1.8,1.3-3c0.5-1.2,1.1-2.4,1.7-3.8c0.6-1.4,1.1-2.7,1.7-4L451.6,67.2z
		 M392.4,63.9c-0.1,0.6-0.1,1.2-0.1,1.9c0,0.7,0.1,1.3,0.2,1.6c0.1,0.3,0.4,0.4,0.7,0.1c0.3-0.3,0.7-1.1,1.3-2.5
		c0.4-1.1,0.7-2.3,1-3.7c0.3-1.4,0.6-2.7,0.9-4.1c0.3-1.4,0.5-2.6,0.7-3.9c0.2-1.2,0.3-2.2,0.4-3.1c-1.2,2.2-2.2,4.4-3.1,6.7
		C393.5,59.2,392.8,61.5,392.4,63.9z"/>
	<path d="M476.3,50.7c-0.4,1.2-0.9,2.6-1.5,4.2c-0.6,1.6-1.2,3.3-1.9,5c-0.7,1.7-1.3,3.4-2.1,5c-0.7,1.6-1.4,3-2,4.1
		c-0.3,0.5-0.7,1-1.1,1.7c-0.5,0.6-1,1.3-1.5,1.9c-0.6,0.6-1.2,1.1-1.8,1.5c-0.6,0.4-1.3,0.6-1.9,0.6c-1,0-1.8-0.3-2.4-0.9
		c-0.6-0.6-1.1-1.3-1.5-2.2c-0.4-0.8-0.6-1.7-0.8-2.7c-0.1-0.9-0.2-1.8-0.2-2.5c0-1.8,0.1-3.6,0.3-5.4c0.2-1.8,0.4-3.6,0.7-5.4
		l0.4-2.5l0.4-1.9c-0.6,1.4-1.4,3-2.3,4.6c-0.9,1.7-1.9,3.2-3,4.7c-1.1,1.4-2.3,2.6-3.7,3.6c-1.3,1-2.8,1.4-4.2,1.4
		c-1,0-1.9-0.3-2.4-1c-0.6-0.6-1-1.4-1.4-2.3c-0.3-0.9-0.5-1.9-0.6-2.9c-0.1-1-0.1-1.9-0.1-2.6c0-0.5,0-1.3,0.2-2.3
		c0.1-1,0.3-2.1,0.5-3.3s0.5-2.4,0.8-3.7c0.3-1.2,0.7-2.4,1.1-3.4s0.9-1.9,1.4-2.5c0.5-0.6,1.1-1,1.7-1c1.3,0,2.2,0.2,2.7,0.6
		c0.5,0.4,0.7,1,0.7,1.7c0,0.7-0.2,1.6-0.5,2.6c-0.3,1-0.7,2-0.9,3.1c-0.1,0.4-0.2,1-0.3,1.8c-0.1,0.8-0.3,1.7-0.4,2.6
		c-0.1,1-0.2,2-0.3,3c-0.1,1-0.1,2,0,2.8c0.1,0.8,0.2,1.5,0.4,2.1c0.2,0.5,0.5,0.8,1,0.8c0.8,0,1.7-0.5,2.5-1.5
		c0.9-1,1.8-2.2,2.6-3.6c0.8-1.4,1.6-2.9,2.4-4.4c0.7-1.6,1.4-2.9,1.9-4.1c0-0.1,0.1-0.4,0.3-0.8c0.1-0.5,0.3-1,0.5-1.7
		c0.2-0.7,0.4-1.4,0.6-2.1c0.2-0.7,0.4-1.4,0.7-2c0.2-0.6,0.4-1.1,0.6-1.6c0.2-0.4,0.3-0.6,0.4-0.6c0.3,0,0.7,0,1.2,0.1
		c0.5,0.1,1,0.2,1.6,0.3c0.5,0.1,1,0.4,1.3,0.6c0.4,0.3,0.5,0.7,0.5,1.1c0,0.9-0.1,2-0.2,3.4c-0.1,1.4-0.3,2.8-0.4,4.2
		c-0.2,1.4-0.4,2.8-0.5,4.2c-0.2,1.3-0.3,2.4-0.5,3.3c0,0.2-0.1,0.6-0.2,1.4c-0.1,0.8-0.2,1.7-0.3,2.7c-0.1,1-0.2,2.1-0.4,3.2
		s-0.2,2.2-0.2,3.1c0,1,0,1.8,0.1,2.4c0.1,0.6,0.3,1,0.7,1c0.4,0,1-0.4,1.5-1.1c0.6-0.7,1.2-1.6,1.8-2.8c0.6-1.2,1.2-2.4,1.9-3.9
		c0.6-1.4,1.3-2.9,1.9-4.3c0.6-1.5,1.1-2.9,1.7-4.2c0.5-1.3,0.9-2.5,1.3-3.5L476.3,50.7z"/>
	<path d="M493.3,50.5c-0.7,1.4-1.5,2.8-2.5,4.2c-1,1.4-2.2,2.5-3.5,3.4c0.7,1.8,1.1,3.7,1.1,5.8c0,1.1-0.1,2.2-0.4,3.2
		s-0.7,1.9-1.3,2.7c-0.6,0.8-1.3,1.4-2.2,1.9c-0.9,0.5-1.9,0.7-3.2,0.7c-1,0-1.8-0.2-2.6-0.6c-0.7-0.4-1.4-0.9-1.8-1.5
		c-0.5-0.6-0.9-1.3-1.1-2.2c-0.3-0.8-0.4-1.7-0.4-2.6c0-0.6,0.1-1.2,0.4-1.8s0.5-1,0.9-1.5c0.4-0.5,0.8-0.9,1.2-1.3
		c0.4-0.4,0.9-0.8,1.3-1.2c-0.6-1.3-1.3-2.8-2.2-4.6c-0.9-1.8-1.9-3.6-2.8-5.5c-0.9-1.9-1.7-3.8-2.4-5.5c-0.7-1.8-1-3.3-1-4.6
		c0-0.9,0.2-1.8,0.6-2.7c0.4-0.9,1-1.6,1.6-2.3c0.7-0.7,1.4-1.2,2.3-1.6c0.9-0.4,1.7-0.6,2.6-0.6c0.9,0,1.8,0.1,2.7,0.4
		c0.9,0.3,1.7,0.7,2.3,1.2c0.7,0.5,1.2,1.2,1.6,1.9c0.4,0.8,0.6,1.6,0.6,2.6c0,0.4,0,0.8-0.1,1.4c-0.1,0.6-0.2,1.1-0.3,1.4l-1.1-0.1
		c0.2-0.8,0.3-1.5,0.3-2.3c0-0.8-0.2-1.5-0.5-2.2c-0.3-0.7-0.8-1.2-1.4-1.6c-0.6-0.4-1.4-0.6-2.4-0.6s-1.7,0.4-2.1,1.2
		c-0.4,0.8-0.6,1.6-0.6,2.5c0,1.3,0.4,2.8,1.1,4.4c0.7,1.7,1.6,3.4,2.7,5.2c1,1.8,2.1,3.4,3.2,5c1.1,1.6,2,2.9,2.7,4
		c1.2-0.7,2.2-1.6,3-2.7c0.8-1.1,1.6-2.3,2.2-3.4L493.3,50.5z M476.8,65.7c0,0.4,0,0.8,0.1,1.3c0.1,0.5,0.2,0.9,0.4,1.4
		c0.2,0.4,0.4,0.8,0.7,1.1c0.3,0.3,0.7,0.5,1.2,0.5c0.4,0,0.7-0.1,1-0.4c0.3-0.3,0.5-0.6,0.7-1c0.2-0.4,0.3-0.8,0.4-1.2
		c0.1-0.4,0.1-0.8,0.1-1.1c0-1.8-0.5-3.5-1.4-5.1c-0.4,0.2-0.8,0.4-1.1,0.8c-0.4,0.3-0.7,0.7-1,1.2c-0.3,0.4-0.5,0.9-0.7,1.4
		C476.9,64.9,476.8,65.3,476.8,65.7z"/>
	<path d="M509,50.7c-0.4,1.2-1,2.5-1.5,3.9c-0.6,1.4-1.1,2.6-1.6,3.6c-0.5,1.1-1.1,2.1-1.7,3.2c-0.6,1-1.2,1.9-1.9,2.7
		c-0.7,0.8-1.4,1.4-2.1,1.9s-1.5,0.7-2.2,0.7c-0.9,0-1.7-0.3-2.4-0.8c-0.7-0.6-1.3-1.3-1.8-2.2c-0.5-0.9-0.9-1.9-1.2-3
		c-0.3-1.1-0.5-2.2-0.7-3.3c-0.2-1.1-0.3-2.1-0.3-3.1c-0.1-1-0.1-1.8-0.1-2.5c0-1,0-2.2,0-3.5c0-1.3,0.1-2.6,0.4-3.8
		c0.3-1.2,0.8-2.2,1.5-3c0.7-0.8,1.8-1.2,3.2-1.2c0.7,0,1.1,0.2,1.4,0.7c0.3,0.4,0.4,1,0.4,1.6c0,1.3-0.1,2.5-0.3,3.8
		c-0.2,1.2-0.3,2.5-0.3,3.8c0,0.6,0,1.5,0.1,2.8s0.2,2.7,0.4,4c0.2,1.4,0.5,2.6,1,3.7c0.5,1.1,1.1,1.6,1.9,1.6
		c0.5,0,1.1-0.4,1.7-1.3c0.6-0.9,1.2-1.9,1.8-3c0.4-0.9,0.9-2,1.5-3.3c0.6-1.3,1.1-2.5,1.5-3.7L509,50.7z M492.6,32.5
		c0-1,0.3-2,0.8-2.8c0.5-0.8,1.4-1.2,2.5-1.2c0.9,0,1.7,0.3,2.3,1c0.6,0.6,1,1.4,1,2.3c0,1.1-0.3,2-0.8,2.8
		c-0.6,0.8-1.4,1.1-2.6,1.1c-0.9,0-1.7-0.3-2.3-0.9C492.9,34.2,492.6,33.4,492.6,32.5z"/>
	<path d="M503.9,51.1c0-2,0.3-4,0.8-5.9s1.3-3.6,2.3-5.1c1-1.5,2.2-2.7,3.6-3.6c1.4-0.9,3-1.4,4.8-1.4c0.8,0,1.5,0.2,2.2,0.6
		c0.6,0.4,1.2,0.9,1.7,1.6c0.5,0.6,0.8,1.3,1,2.1c0.2,0.8,0.4,1.5,0.4,2.3l-0.8,0.1c-0.3-1.4-0.7-2.3-1.1-2.8s-1-0.8-1.8-0.8
		c-1.3-0.1-2.4,0.2-3.2,1c-0.8,0.8-1.4,1.8-1.9,2.9c-0.4,1.2-0.7,2.4-0.9,3.8c-0.1,1.3-0.2,2.5-0.2,3.4c0,1.5,0.1,3.1,0.3,4.7
		c0.2,1.7,0.6,3.2,1.1,4.7s1.2,2.6,2.2,3.6c0.9,0.9,2.1,1.4,3.6,1.4c0.8,0,1.6-0.2,2.4-0.5c0.8-0.4,1.5-0.8,2.1-1.4
		c0.6-0.6,1.2-1.2,1.8-1.9c0.5-0.7,1-1.3,1.5-2c0.5-0.8,0.9-1.6,1.4-2.4c0.4-0.8,0.8-1.5,1.1-2.2c0.3-0.7,0.6-1.2,0.8-1.7
		c0.2-0.5,0.3-0.8,0.4-1h1.3c0,0.1-0.1,0.4-0.3,0.9c-0.2,0.5-0.4,1.1-0.8,1.8c-0.3,0.7-0.7,1.5-1.2,2.4c-0.4,0.9-0.9,1.8-1.4,2.7
		c-0.6,1.1-1.4,2.2-2.3,3.2c-0.9,1.1-1.9,2.1-3,2.9c-1.1,0.9-2.3,1.6-3.6,2.1c-1.3,0.5-2.7,0.8-4.1,0.8c-1.7,0-3.1-0.5-4.4-1.6
		c-1.2-1-2.3-2.4-3.1-4c-0.8-1.6-1.4-3.4-1.9-5.3C504.1,54.8,503.9,52.9,503.9,51.1z"/>
	<path d="M580.1,22.5c0-0.6,0-1.3-0.1-2c-0.1-0.7-0.3-1.4-0.5-2c-0.3-0.6-0.6-1.1-1.1-1.5c-0.5-0.4-1.2-0.6-2-0.6
		c-1.7-0.1-3.3,0.1-4.7,0.6c-1.4,0.5-2.6,1.1-3.5,2c-1,0.9-1.7,1.9-2.3,3.1c-0.5,1.2-0.8,2.5-0.8,4c0,1.1,0.2,2.2,0.5,3.4
		c0.3,1.2,0.8,2.3,1.4,3.5c1.4,2.4,2.8,4.8,4.4,7.3c1.6,2.5,3,5.1,4.3,7.8c1.3,2.7,2.5,5.5,3.4,8.3c0.9,2.9,1.3,5.8,1.3,8.8
		c0,1.5-0.1,3-0.4,4.4c-0.3,1.5-0.7,3-1.2,4.5c-1.2,3-3.1,5.4-5.8,7.2c-2.6,1.8-6.1,2.7-10.5,2.7c-2.4,0-4.5-0.4-6.4-1.1
		c-1.9-0.7-3.5-1.7-4.8-3.1c-1.3-1.3-2.3-2.9-3-4.8c-0.7-1.9-1.1-4.1-1.1-6.5c0-1.4,0.2-2.7,0.6-4c0.4-1.3,1-2.5,1.8-3.6
		c0.8-1.1,1.7-1.9,2.9-2.6c1.2-0.7,2.5-1,4-1c1.3,0,2.3,0.3,2.9,0.8c0.6,0.6,1.1,1.1,1.3,1.5c0.1,0.1,0.1,0.1,0.2,0.2
		c0,0.1,0.2,0.2,0.5,0.4l-1.6,0.8c-0.5-0.9-1-1.5-1.4-1.9c-0.4-0.3-1.1-0.5-2-0.5c-1.3,0-2.5,0.3-3.4,0.9s-1.8,1.4-2.4,2.3
		c-0.6,0.9-1.1,2-1.4,3.2c-0.3,1.2-0.5,2.4-0.5,3.5c0,1.6,0.2,3.2,0.8,4.7s1.2,2.8,2,4c0.9,1.1,1.9,2,3,2.7c1.2,0.7,2.4,1,3.8,1
		c1,0,2-0.2,3.1-0.7c1.1-0.5,2.2-1.1,3.3-1.9c1.4-1.2,2.6-2.7,3.4-4.6c0.8-1.9,1.4-3.8,1.8-5.9c0.1-0.7,0.2-1.3,0.2-1.9
		c0-0.6,0.1-1.2,0.1-1.8c0-1.8-0.2-3.6-0.7-5.4c-0.5-1.8-1.1-3.5-1.8-5.1c-0.7-1.7-1.6-3.3-2.5-4.8s-1.9-3.1-2.8-4.6
		c-0.9-1.4-1.8-2.9-2.6-4.3c-0.8-1.4-1.6-2.9-2.2-4.3s-1.2-2.9-1.6-4.4c-0.4-1.5-0.6-3-0.6-4.6c0-1.4,0.1-2.6,0.4-3.8
		c0.6-1.9,1.3-3.6,2.4-5c1-1.4,2.2-2.6,3.5-3.5c1.3-0.9,2.8-1.6,4.4-2c1.6-0.4,3.3-0.6,5-0.5c6.8,0.3,10.3,3.8,10.4,10.5
		c-0.1,1.2-0.3,2.3-0.5,3.1c-0.2,0.8-0.5,1.5-0.9,2.1c-0.6,0.8-1.3,1.5-2.1,2c-0.8,0.5-1.6,0.7-2.3,0.7c-0.9,0-1.8-0.2-2.6-0.6
		c-0.9-0.4-1.7-1-2.5-1.7l0.7-1.4c0.8,0.7,1.5,1.2,2.2,1.6s1.4,0.6,2.1,0.6c1.2,0,2.3-0.7,3.2-2c0.3-0.6,0.6-1.2,0.8-2
		C580,24,580.1,23.3,580.1,22.5z"/>
	<path d="M584.4,51.1c0-2,0.3-4,0.8-5.9s1.3-3.6,2.3-5.1c1-1.5,2.2-2.7,3.6-3.6c1.4-0.9,3-1.4,4.8-1.4c0.8,0,1.5,0.2,2.2,0.6
		c0.6,0.4,1.2,0.9,1.7,1.6c0.5,0.6,0.8,1.3,1,2.1c0.2,0.8,0.4,1.5,0.4,2.3l-0.8,0.1c-0.3-1.4-0.7-2.3-1.1-2.8s-1-0.8-1.8-0.8
		c-1.3-0.1-2.4,0.2-3.2,1c-0.8,0.8-1.4,1.8-1.9,2.9c-0.4,1.2-0.7,2.4-0.9,3.8c-0.1,1.3-0.2,2.5-0.2,3.4c0,1.5,0.1,3.1,0.3,4.7
		c0.2,1.7,0.6,3.2,1.1,4.7s1.2,2.6,2.2,3.6c0.9,0.9,2.1,1.4,3.6,1.4c0.8,0,1.6-0.2,2.4-0.5c0.8-0.4,1.5-0.8,2.1-1.4
		c0.6-0.6,1.2-1.2,1.8-1.9c0.5-0.7,1-1.3,1.5-2c0.5-0.8,0.9-1.6,1.4-2.4c0.4-0.8,0.8-1.5,1.1-2.2c0.3-0.7,0.6-1.2,0.8-1.7
		c0.2-0.5,0.3-0.8,0.4-1h1.3c0,0.1-0.1,0.4-0.3,0.9c-0.2,0.5-0.4,1.1-0.8,1.8c-0.3,0.7-0.7,1.5-1.2,2.4c-0.4,0.9-0.9,1.8-1.4,2.7
		c-0.6,1.1-1.4,2.2-2.3,3.2c-0.9,1.1-1.9,2.1-3,2.9c-1.1,0.9-2.3,1.6-3.6,2.1c-1.3,0.5-2.7,0.8-4.1,0.8c-1.7,0-3.1-0.5-4.4-1.6
		c-1.2-1-2.3-2.4-3.1-4c-0.8-1.6-1.4-3.4-1.9-5.3C584.6,54.8,584.4,52.9,584.4,51.1z"/>
	<path d="M638.5,50.7c-0.2,0.7-0.5,1.7-0.8,2.8c-0.4,1.2-0.8,2.4-1.2,3.8c-0.5,1.4-1,2.8-1.5,4.3c-0.6,1.5-1.2,2.9-1.8,4.3
		c-0.6,1.4-1.3,2.6-2,3.8c-0.7,1.1-1.4,2-2,2.7c-0.2,0.2-0.6,0.5-1,0.7c-0.4,0.2-0.7,0.3-1,0.4c-1.5,0.3-2.7-0.1-3.5-1.1
		c-0.8-1-1.4-2.3-1.7-4s-0.4-3.6-0.4-5.8c0.1-2.2,0.2-4.3,0.4-6.4c0.2-2.1,0.4-4.1,0.7-5.9c0.2-1.8,0.4-3.1,0.4-4.1c0-0.5,0-1,0-1.5
		c0-0.5-0.1-0.9-0.2-1.2c-0.1-0.3-0.3-0.6-0.5-0.8c-0.2-0.2-0.5-0.2-1-0.2c-0.6,0.2-1.3,0.6-1.8,1.2c-0.6,0.7-1.1,1.5-1.7,2.4
		c-0.5,0.9-1,1.9-1.4,3c-0.4,1.1-0.8,2.2-1.2,3.2c-0.4,1-0.7,2-0.9,2.8c-0.2,0.9-0.4,1.5-0.5,2s-0.1,1.2-0.1,2.1
		c0,0.9,0,1.8-0.2,2.7c-0.1,0.9-0.4,1.6-0.8,2.3c-0.4,0.7-1,1-1.9,1c-0.7,0-1.2-0.5-1.7-1.4c-0.4-0.9-0.7-2.1-1-3.4
		c-0.2-1.4-0.4-2.8-0.4-4.4c-0.1-1.6-0.1-3-0.1-4.4c0-1.8,0.1-4,0.2-6.9c0.1-2.8,0.4-5.8,0.9-9c0.4-3.2,1-6.4,1.8-9.6
		c0.8-3.2,1.8-6.1,3.1-8.7c1.3-2.6,2.8-4.7,4.6-6.3c1.8-1.6,4-2.4,6.5-2.3c1.5,0,2.6,0.4,3.4,1.2c0.8,0.7,1.3,1.6,1.5,2.7
		c0.3,1.1,0.3,2.3,0.2,3.6c-0.1,1.3-0.4,2.5-0.8,3.6c-0.6,1.9-1.3,3.8-2.4,5.7c-1,1.9-2.1,3.8-3.3,5.6c-1.2,1.8-2.4,3.5-3.6,5.1
		c-1.2,1.6-2.3,2.9-3.1,4c-0.7,0.8-1.3,1.5-1.8,2c-0.5,0.6-0.8,0.9-0.9,1.1c-0.1,0.6-0.1,1.2-0.2,1.9c-0.1,0.7-0.1,1.4-0.2,2.2
		c-0.1,0.7-0.1,1.5-0.1,2.2c0,0.7,0,1.4,0,1.9c0,0.2-0.1,0.4-0.1,0.4c0,0,0,0.3,0.1,0.7c0.4-1.3,0.9-2.7,1.6-4.2
		c0.7-1.5,1.4-3,2.3-4.3c0.9-1.3,1.9-2.4,3.1-3.3c1.1-0.9,2.4-1.3,3.8-1.3c0.8,0,1.5,0.3,2.1,0.8s1.1,1.1,1.5,1.7
		c0.4,0.7,0.7,1.4,0.8,2.2c0.2,0.8,0.2,1.6,0.2,2.4c-0.1,3-0.3,6.1-0.8,9c-0.4,3-0.7,6.1-0.8,9.2c-0.1,1.8,0,3.1,0.1,3.8
		c0.2,0.8,0.4,1.1,0.7,1.1c0.4,0,0.8-0.4,1.3-1.3c0.5-0.8,1.1-1.9,1.7-3.2c0.6-1.3,1.2-2.7,1.8-4.2c0.6-1.5,1.1-3,1.6-4.4
		c0.5-1.4,0.9-2.7,1.2-3.8c0.3-1.1,0.5-1.9,0.6-2.3L638.5,50.7z M614.5,41c1.2-1.3,2.6-3,4.2-5.1c1.6-2.1,3.2-4.3,4.7-6.7
		c1.5-2.4,2.8-4.8,3.9-7.2c1.1-2.4,1.6-4.6,1.6-6.7c0-2.1-0.3-3.4-1-4c-0.7-0.6-1.5-0.7-2.4-0.3c-0.9,0.4-1.9,1-2.9,2.1
		s-1.8,2.1-2.4,3.2c-0.9,1.8-1.7,3.9-2.4,6.2c-0.7,2.3-1.3,4.7-1.7,7c-0.5,2.3-0.8,4.5-1.1,6.6C614.8,38,614.6,39.7,614.5,41z"/>
	<path d="M655.9,49.3c0,0.8,0,1.6-0.1,2.2c-0.1,0.7-0.2,1.4-0.4,2.2c1.3,0,2.4-0.3,3.3-1c0.9-0.6,1.8-1.4,2.5-2.3l1.4,0.1
		c-0.9,1.2-2,2.3-3.2,3.2s-2.8,1.4-4.4,1.4c-0.4,1-1,2.2-1.6,3.5c-0.6,1.3-1.4,2.5-2.2,3.6c-0.8,1.1-1.8,2.1-2.9,2.8
		c-1.1,0.8-2.3,1.1-3.7,1.1c-2,0-3.6-0.5-4.7-1.5c-1.1-1-1.9-2.2-2.4-3.8s-0.8-3.1-1-4.8c-0.1-1.7-0.2-3.3-0.2-4.8
		c0-0.4,0-1,0.1-1.7c0.1-0.8,0.2-1.6,0.4-2.5c0.2-0.9,0.4-1.8,0.7-2.7c0.3-0.9,0.6-1.7,0.9-2.5c0.4-0.7,0.8-1.4,1.2-1.8
		s0.9-0.7,1.4-0.7c0.4,0,0.7,0.1,1.1,0.4c0.4,0.3,0.7,0.7,1,1.1c0.3,0.4,0.6,0.9,0.8,1.3c0.2,0.5,0.4,0.8,0.5,1.1
		c-0.1-0.8-0.1-1.6-0.1-2.6c0-0.9,0.2-1.7,0.5-2.5c0.3-0.8,0.7-1.4,1.3-1.9c0.6-0.5,1.4-0.8,2.4-0.8c1.4,0,2.6,0.5,3.6,1.5
		c0.9,1,1.7,2.2,2.3,3.7c0.6,1.4,1,2.9,1.2,4.4C655.8,46.9,655.9,48.2,655.9,49.3z M653.5,54.9c-4.6-2.2-7.6-5.8-8.9-10.7v0.1
		c-0.5,1.5-0.8,3-1.1,4.5s-0.4,3.1-0.4,4.8c0,0.5,0,1.3,0.1,2.4c0.1,1.1,0.2,2.2,0.5,3.3c0.2,1.1,0.6,2.1,1,2.9
		c0.4,0.8,1.1,1.3,1.9,1.3c0.8,0,1.5-0.3,2.2-1s1.4-1.5,2-2.4c0.6-0.9,1.1-1.9,1.6-2.9C652.9,56.3,653.3,55.5,653.5,54.9z
		 M645.8,41.7c0,1.3,0.2,2.5,0.6,3.8c0.4,1.2,1,2.4,1.7,3.4c0.7,1,1.6,2,2.6,2.8c1,0.8,2.1,1.5,3.2,1.9c0.2-0.7,0.4-1.4,0.4-2.2
		c0-0.8,0.1-1.5,0.1-2.2c0-0.8-0.1-1.9-0.3-3.3c-0.2-1.3-0.5-2.7-1-4c-0.5-1.3-1.1-2.4-1.8-3.3c-0.8-0.9-1.7-1.4-2.8-1.4
		c-0.7,0-1.2,0.1-1.6,0.4c-0.4,0.3-0.6,0.6-0.8,1.1c-0.2,0.4-0.3,0.9-0.4,1.5C645.8,40.7,645.8,41.2,645.8,41.7z"/>
	<path d="M678,49.3c0,0.8,0,1.6-0.1,2.2c-0.1,0.7-0.2,1.4-0.4,2.2c1.3,0,2.4-0.3,3.3-1c0.9-0.6,1.8-1.4,2.5-2.3l1.4,0.1
		c-0.9,1.2-2,2.3-3.2,3.2s-2.8,1.4-4.4,1.4c-0.4,1-1,2.2-1.6,3.5c-0.6,1.3-1.4,2.5-2.2,3.6c-0.8,1.1-1.8,2.1-2.9,2.8
		c-1.1,0.8-2.3,1.1-3.7,1.1c-2,0-3.6-0.5-4.7-1.5c-1.1-1-1.9-2.2-2.4-3.8s-0.8-3.1-1-4.8c-0.1-1.7-0.2-3.3-0.2-4.8
		c0-0.4,0-1,0.1-1.7c0.1-0.8,0.2-1.6,0.4-2.5c0.2-0.9,0.4-1.8,0.7-2.7c0.3-0.9,0.6-1.7,0.9-2.5c0.4-0.7,0.8-1.4,1.2-1.8
		s0.9-0.7,1.4-0.7c0.4,0,0.7,0.1,1.1,0.4c0.4,0.3,0.7,0.7,1,1.1c0.3,0.4,0.6,0.9,0.8,1.3c0.2,0.5,0.4,0.8,0.5,1.1
		c-0.1-0.8-0.1-1.6-0.1-2.6c0-0.9,0.2-1.7,0.5-2.5c0.3-0.8,0.7-1.4,1.3-1.9c0.6-0.5,1.4-0.8,2.4-0.8c1.4,0,2.6,0.5,3.6,1.5
		c0.9,1,1.7,2.2,2.3,3.7c0.6,1.4,1,2.9,1.2,4.4C677.9,46.9,678,48.2,678,49.3z M675.6,54.9c-4.6-2.2-7.6-5.8-8.9-10.7v0.1
		c-0.5,1.5-0.8,3-1.1,4.5s-0.4,3.1-0.4,4.8c0,0.5,0,1.3,0.1,2.4c0.1,1.1,0.2,2.2,0.5,3.3c0.2,1.1,0.6,2.1,1,2.9
		c0.4,0.8,1.1,1.3,1.9,1.3c0.8,0,1.5-0.3,2.2-1s1.4-1.5,2-2.4c0.6-0.9,1.1-1.9,1.6-2.9C675,56.3,675.4,55.5,675.6,54.9z M667.9,41.7
		c0,1.3,0.2,2.5,0.6,3.8c0.4,1.2,1,2.4,1.7,3.4c0.7,1,1.6,2,2.6,2.8c1,0.8,2.1,1.5,3.2,1.9c0.2-0.7,0.4-1.4,0.4-2.2
		c0-0.8,0.1-1.5,0.1-2.2c0-0.8-0.1-1.9-0.3-3.3c-0.2-1.3-0.5-2.7-1-4c-0.5-1.3-1.1-2.4-1.8-3.3c-0.8-0.9-1.7-1.4-2.8-1.4
		c-0.7,0-1.2,0.1-1.6,0.4c-0.4,0.3-0.6,0.6-0.8,1.1c-0.2,0.4-0.3,0.9-0.4,1.5C667.9,40.7,667.9,41.2,667.9,41.7z"/>
	<path d="M694.9,67c0.8,0,1.5-0.3,2.2-1c0.7-0.7,1.4-1.5,2.1-2.5c0.7-1,1.3-2.2,1.8-3.5c0.6-1.3,1.1-2.5,1.6-3.7
		c0.5-1.2,0.9-2.3,1.2-3.4c0.3-1,0.6-1.8,0.8-2.4l1.4,0.1c-0.4,1.1-0.8,2.3-1.2,3.7c-0.5,1.4-1,2.8-1.5,4.3
		c-0.6,1.5-1.2,2.9-1.9,4.3c-0.7,1.4-1.5,2.7-2.4,3.8c-0.9,1.1-1.8,2-2.9,2.7s-2.2,1-3.5,1c-1.6,0-2.9-0.5-4.1-1.4s-2.2-2.1-3-3.5
		c-0.9-1.5-1.6-3.1-2.1-4.9c-0.6-1.8-1-3.6-1.3-5.5c-0.3-1.8-0.6-3.6-0.7-5.2c-0.1-1.7-0.2-3-0.2-4.2c0-1.5,0.1-3.5,0.3-5.9
		c0.2-2.4,0.5-5,1-7.6c0.5-2.7,1.1-5.4,1.9-8.1s1.8-5.1,2.9-7.3c1.2-2.2,2.5-3.9,4.1-5.3c1.6-1.4,3.5-2,5.6-2c0.8,0,1.5,0.2,2,0.5
		c0.5,0.3,0.9,0.8,1.1,1.3c0.3,0.5,0.5,1.1,0.5,1.8c0.1,0.7,0.1,1.3,0.1,2c0,2.7-0.3,5.3-1,7.8s-1.6,4.8-2.8,7
		c-1.2,2.2-2.6,4.4-4.3,6.3c-1.6,2-3.4,3.9-5.4,5.6c0,0.8,0,1.9,0.1,3.5c0.1,1.5,0.2,3.2,0.5,5.1c0.2,1.9,0.5,3.8,0.9,5.8
		s0.8,3.8,1.4,5.4c0.6,1.6,1.3,3,2,4C692.9,66.5,693.8,67,694.9,67z M699.4,14.9c0-0.2,0-0.4,0-0.8c0-0.4,0-0.7-0.1-1
		c-0.1-0.3-0.2-0.6-0.3-0.9c-0.1-0.3-0.4-0.4-0.6-0.4c-1.1,0-2.1,0.6-3,1.7c-0.9,1.2-1.8,2.6-2.6,4.4c-0.8,1.8-1.5,3.8-2.2,6
		c-0.6,2.2-1.2,4.3-1.7,6.4c-0.5,2.1-0.9,4-1.1,5.7c-0.3,1.7-0.5,3-0.5,3.8c1-0.8,2-1.7,2.9-2.7c0.9-1,1.8-2,2.6-3.1
		c2.1-2.8,3.7-5.8,4.9-9.1C698.8,21.7,699.4,18.3,699.4,14.9z"/>
</g>
<g>
	<rect x="77.1" y="91" class="st0" width="605.8" height="18"/>
	<path d="M181.3,93.5c0,0.3,0,0.5,0,0.7v6.8c0.5,0.1,0.9,0.1,1,0.2c0.1,0,0.2,0.1,0.2,0.3v0.7H179v-0.7c0-0.1,0.1-0.2,0.2-0.3
		l0.8-0.2v-8.5c-0.5-0.1-0.8-0.1-0.8-0.2c-0.1,0-0.2-0.1-0.2-0.3v-0.7h2.2c0.1,0,0.2,0,0.3,0c0.1,0,0.1,0.1,0.2,0.2l3.7,6.6
		c0.1,0.1,0.2,0.4,0.3,0.8c0.1-0.3,0.2-0.6,0.3-0.8l3.6-6.6c0.1-0.1,0.1-0.2,0.2-0.2c0.1,0,0.2,0,0.3,0h2.2V92
		c0,0.1-0.1,0.2-0.2,0.3l-0.9,0.2v8.5c0.5,0.1,0.8,0.1,0.9,0.2c0.1,0,0.2,0.1,0.2,0.3v0.7h-3.6v-0.7c0-0.1,0.1-0.2,0.2-0.3
		c0.2,0,0.5-0.1,1-0.2v-6.8c0-0.2,0-0.5,0-0.7l-3.7,6.7c-0.1,0.2-0.3,0.3-0.5,0.3h-0.2c-0.2,0-0.4-0.1-0.5-0.3L181.3,93.5
		L181.3,93.5z"/>
	<path d="M203.7,91.4V92c0,0.1-0.1,0.3-0.2,0.3l-0.9,0.2v5.4c0,1.3-0.4,2.3-1.1,3.1c-0.8,0.8-1.8,1.2-3.1,1.2
		c-1.3,0-2.3-0.4-3.1-1.2c-0.8-0.8-1.2-1.8-1.2-3.1v-5.4c-0.5-0.1-0.8-0.1-0.9-0.2c-0.1,0-0.2-0.1-0.2-0.3v-0.6h3.8V92
		c0,0.1-0.1,0.3-0.2,0.3c-0.1,0-0.4,0.1-1,0.2v5.4c0,0.9,0.2,1.7,0.8,2.2c0.5,0.6,1.2,0.9,2.1,0.9c0.9,0,1.6-0.3,2.1-0.9
		c0.5-0.6,0.8-1.3,0.8-2.2v-5.4c-0.6-0.1-0.9-0.1-1-0.2c-0.1,0-0.2-0.1-0.2-0.3v-0.6h1.2h1.4H203.7z"/>
	<path d="M209.6,96.4c1.1,0.5,1.6,1.3,1.6,2.4c0,1-0.3,1.8-0.9,2.4c-0.7,0.7-1.6,1-2.7,1c-0.5,0-1,0-1.5-0.1
		c-0.5-0.1-0.9-0.2-1.2-0.3l-0.4-0.2v-2.7h0.7c0.2,0,0.3,0.1,0.3,0.3c0,0.1,0,0.3,0.1,0.7c0,0.4,0,0.7,0,0.7
		c0.7,0.3,1.3,0.4,1.8,0.4s0.8-0.1,1.1-0.1s0.5-0.2,0.7-0.4c0.4-0.4,0.6-0.8,0.6-1.4c0-0.6-0.3-1-0.8-1.3c-0.2-0.1-0.5-0.3-0.8-0.4
		c-1-0.3-1.6-0.5-1.9-0.6c-0.3-0.1-0.6-0.3-0.8-0.5c-0.5-0.5-0.8-1.2-0.8-2c0-0.8,0.3-1.5,0.9-2c0.6-0.6,1.4-0.9,2.4-0.9
		c1,0,2,0.2,3,0.6v2.5h-0.7c-0.2,0-0.3-0.1-0.3-0.3c0,0,0-0.5-0.1-1.3c-0.7-0.2-1.3-0.3-1.8-0.3c-0.6,0-1.1,0.1-1.5,0.5
		c-0.3,0.3-0.5,0.7-0.5,1.2c0,0.5,0.3,0.9,0.8,1.2c0.2,0.1,0.5,0.3,0.8,0.4C208.6,96,209.3,96.3,209.6,96.4L209.6,96.4z"/>
	<path d="M214.6,92.4v8.6c0.5,0.1,0.8,0.1,0.9,0.2c0.1,0,0.2,0.1,0.2,0.3v0.6h-3.6v-0.6c0-0.1,0.1-0.3,0.2-0.3l0.9-0.2v-8.6
		c-0.5-0.1-0.8-0.1-0.9-0.2c-0.1,0-0.2-0.1-0.2-0.3v-0.6h3.6V92c0,0.1-0.1,0.3-0.2,0.3L214.6,92.4z"/>
	<path d="M221.9,91.2c0.8,0,2,0.3,3.3,0.8v0.8v1.7h-0.7c-0.2,0-0.3-0.1-0.3-0.3c0-0.1,0-0.3-0.1-0.7c0-0.4-0.1-0.6-0.1-0.7
		c-2.2-0.7-3.9-0.5-5.1,0.7c-0.7,0.8-1.1,1.8-1.1,3.1s0.4,2.3,1.1,3.1c0.7,0.8,1.6,1.1,2.7,1.1c0.6,0,1.1-0.1,1.4-0.2
		c0.5-0.2,0.9-0.4,1.3-0.8c0.1-0.1,0.1-0.1,0.2-0.1c0.1,0,0.2,0,0.2,0.1l0.6,0.6c-0.9,1.1-2.2,1.6-3.9,1.6c-1.5,0-2.8-0.5-3.7-1.5
		c-0.9-1-1.4-2.3-1.4-4c0-1.6,0.5-2.9,1.5-4C219,91.7,220.3,91.2,221.9,91.2L221.9,91.2z"/>
	<path d="M237.1,91.4v2.6h-0.7c-0.2,0-0.3-0.1-0.3-0.3c0,0,0-0.4-0.1-1.2h-4v3.6h4v1.1h-4v3.7h4c0.1-0.7,0.1-1,0.1-1.1
		c0-0.2,0.1-0.2,0.3-0.2h0.7v2.5h-7.7v-0.6c0-0.1,0.1-0.3,0.2-0.3l0.9-0.2v-8.6c-0.5-0.1-0.8-0.1-0.9-0.2c-0.1,0-0.2-0.1-0.2-0.3
		v-0.6H237.1z"/>
	<path d="M248.1,98.9c-0.3,0.7-0.6,1.2-1.1,1.7c-1,1-2.2,1.5-3.8,1.5h-5v-0.6c0-0.1,0.1-0.3,0.2-0.3l0.8-0.2v-8.6
		c-0.5-0.1-0.8-0.1-0.8-0.2c-0.1,0-0.2-0.1-0.2-0.3v-0.6h5c1.6,0,2.9,0.5,3.8,1.5c1,1,1.5,2.3,1.5,3.9
		C248.5,97.5,248.3,98.3,248.1,98.9z M246.7,95c-0.2-0.5-0.4-1-0.8-1.3c-0.7-0.8-1.6-1.1-2.8-1.1h-2.4v8.4h2.4
		c1.2,0,2.1-0.4,2.8-1.1s1-1.8,1-3.1C247,96.1,246.9,95.5,246.7,95z"/>
	<path d="M259.8,91.4V92c0,0.1-0.1,0.3-0.2,0.3l-0.9,0.2v5.4c0,1.3-0.4,2.3-1.1,3.1c-0.8,0.8-1.8,1.2-3.1,1.2
		c-1.3,0-2.3-0.4-3.1-1.2c-0.8-0.8-1.2-1.8-1.2-3.1v-5.4c-0.5-0.1-0.8-0.1-0.9-0.2c-0.1,0-0.2-0.1-0.2-0.3v-0.6h3.8V92
		c0,0.1-0.1,0.3-0.2,0.3c-0.1,0-0.4,0.1-1,0.2v5.4c0,0.9,0.2,1.7,0.8,2.2c0.5,0.6,1.2,0.9,2.1,0.9c0.9,0,1.6-0.3,2.1-0.9
		c0.5-0.6,0.8-1.3,0.8-2.2v-5.4c-0.6-0.1-0.9-0.1-1-0.2c-0.1,0-0.2-0.1-0.2-0.3v-0.6h1.2h1.4H259.8z"/>
	<path d="M265.9,91.2c0.8,0,2,0.3,3.3,0.8v0.8v1.7h-0.7c-0.2,0-0.3-0.1-0.3-0.3c0-0.1,0-0.3-0.1-0.7c0-0.4-0.1-0.6-0.1-0.7
		c-2.2-0.7-3.9-0.5-5.1,0.7c-0.7,0.8-1.1,1.8-1.1,3.1s0.4,2.3,1.1,3.1c0.7,0.8,1.6,1.1,2.7,1.1c0.6,0,1.1-0.1,1.4-0.2
		c0.5-0.2,0.9-0.4,1.3-0.8c0.1-0.1,0.1-0.1,0.2-0.1c0.1,0,0.2,0,0.2,0.1l0.6,0.6c-0.9,1.1-2.2,1.6-3.9,1.6c-1.5,0-2.8-0.5-3.7-1.5
		c-0.9-1-1.4-2.3-1.4-4c0-1.6,0.5-2.9,1.5-4C262.9,91.7,264.3,91.2,265.9,91.2L265.9,91.2z"/>
	<path d="M280.8,101.5v0.6h-3.1v-0.6c0-0.1,0.1-0.2,0.2-0.2l0.6-0.2l-0.8-2.2h-4.6l-0.8,2.2l0.6,0.2c0.1,0,0.2,0.1,0.2,0.2v0.6H270
		v-0.6c0-0.1,0.1-0.2,0.2-0.2l0.6-0.2l3.9-9.7h1.5l3.9,9.7l0.6,0.2C280.8,101.3,280.8,101.4,280.8,101.5z M277.3,97.9l-1.6-4.1
		c-0.1-0.3-0.2-0.6-0.3-1c-0.1,0.4-0.2,0.8-0.3,1l-1.6,4.1H277.3z"/>
	<path d="M290.4,91.4v2.4h-0.7c-0.2,0-0.3,0-0.3-0.1s-0.1-0.4-0.1-1h-2.5v8.4c0,0,0.1,0,0.2,0c0.4,0.1,0.6,0.1,0.8,0.1
		c0.1,0,0.1,0.1,0.1,0.3v0.6h-3.6v-0.6c0-0.1,0.1-0.3,0.3-0.3c0.2,0,0.4-0.1,0.8-0.2v-8.4h-2.5c-0.1,0.6-0.1,0.9-0.1,1
		c0,0.1-0.1,0.1-0.3,0.1h-0.7v-2.4h8.1h0.5H290.4z"/>
	<path d="M293.7,92.4v8.6c0.5,0.1,0.8,0.1,0.9,0.2c0.1,0,0.2,0.1,0.2,0.3v0.6h-3.6v-0.6c0-0.1,0.1-0.3,0.2-0.3l0.9-0.2v-8.6
		c-0.5-0.1-0.8-0.1-0.9-0.2c-0.1,0-0.2-0.1-0.2-0.3v-0.6h3.6V92c0,0.1-0.1,0.3-0.2,0.3L293.7,92.4z"/>
	<path d="M306.1,96.8c0,0.8-0.1,1.5-0.4,2.2c-0.3,0.7-0.6,1.3-1.1,1.7c-0.5,0.5-1,0.9-1.7,1.1c-0.7,0.3-1.4,0.4-2.2,0.4
		c-0.8,0-1.5-0.1-2.2-0.4c-0.7-0.3-1.2-0.6-1.7-1.1c-0.5-0.5-0.8-1.1-1.1-1.7c-0.3-0.7-0.4-1.4-0.4-2.2c0-0.8,0.1-1.5,0.4-2.2
		c0.3-0.7,0.6-1.3,1.1-1.7c0.5-0.5,1-0.9,1.7-1.1c0.7-0.3,1.4-0.4,2.2-0.4c0.8,0,1.5,0.1,2.2,0.4c0.7,0.3,1.2,0.6,1.7,1.1
		c0.5,0.5,0.8,1.1,1.1,1.7C306,95.2,306.1,95.9,306.1,96.8L306.1,96.8z M304.6,96.8c0-0.7-0.1-1.3-0.3-1.8c-0.2-0.5-0.4-1-0.8-1.3
		c-0.3-0.4-0.7-0.6-1.2-0.8s-1-0.3-1.6-0.3s-1.1,0.1-1.6,0.3s-0.9,0.5-1.2,0.8c-0.3,0.4-0.6,0.8-0.8,1.3c-0.2,0.5-0.3,1.1-0.3,1.8
		c0,0.7,0.1,1.2,0.3,1.8c0.2,0.5,0.5,1,0.8,1.3c0.3,0.4,0.7,0.6,1.2,0.8c0.5,0.2,1,0.3,1.6,0.3c0.6,0,1.1-0.1,1.6-0.3
		c0.5-0.2,0.9-0.5,1.2-0.8c0.3-0.4,0.6-0.8,0.8-1.3C304.5,98,304.6,97.4,304.6,96.8L304.6,96.8z"/>
	<path d="M315.4,99.7c0-0.2,0-0.5,0-0.7v-6.5c-0.6-0.1-0.9-0.2-1-0.2c-0.1,0-0.2-0.1-0.2-0.3v-0.7h1.2h1.3h1.1V92
		c0,0.1-0.1,0.2-0.2,0.3l-0.9,0.2v9.6h-0.7c-0.2,0-0.4-0.1-0.5-0.3l-6.2-8.1c0,0.3,0,0.5,0,0.7v6.6c0.6,0.1,0.9,0.2,1,0.2
		c0.2,0,0.2,0.1,0.2,0.3v0.6h-3.6v-0.6c0-0.1,0.1-0.2,0.2-0.3l0.9-0.2v-8.5c-0.5-0.1-0.8-0.2-0.9-0.2c-0.1,0-0.2-0.1-0.2-0.3v-0.6
		h1.8c0.1,0,0.2,0,0.3,0c0.1,0,0.1,0.1,0.2,0.2L315.4,99.7L315.4,99.7z"/>
	<path d="M324.2,92.4v8.6c0.5,0.1,0.8,0.1,0.9,0.2c0.1,0,0.2,0.1,0.2,0.3v0.6h-3.6v-0.6c0-0.1,0.1-0.3,0.2-0.3l0.9-0.2v-8.6
		c-0.5-0.1-0.8-0.1-0.9-0.2c-0.1,0-0.2-0.1-0.2-0.3v-0.6h3.6V92c0,0.1-0.1,0.3-0.2,0.3L324.2,92.4z"/>
	<path d="M334.8,99.7c0-0.2,0-0.5,0-0.7v-6.5c-0.6-0.1-0.9-0.2-1-0.2c-0.1,0-0.2-0.1-0.2-0.3v-0.7h1.2h1.3h1.1V92
		c0,0.1-0.1,0.2-0.2,0.3l-0.9,0.2v9.6h-0.7c-0.2,0-0.4-0.1-0.5-0.3l-6.2-8.1c0,0.3,0,0.5,0,0.7v6.6c0.6,0.1,0.9,0.2,1,0.2
		c0.2,0,0.2,0.1,0.2,0.3v0.6h-3.6v-0.6c0-0.1,0.1-0.2,0.2-0.3l0.9-0.2v-8.5c-0.5-0.1-0.8-0.2-0.9-0.2c-0.1,0-0.2-0.1-0.2-0.3v-0.6
		h1.8c0.1,0,0.2,0,0.3,0c0.1,0,0.1,0.1,0.2,0.2L334.8,99.7L334.8,99.7z"/>
	<path d="M375.6,91.4v2.4h-0.7c-0.2,0-0.3,0-0.3-0.1s-0.1-0.4-0.1-1h-2.5v8.4c0,0,0.1,0,0.2,0c0.4,0.1,0.6,0.1,0.8,0.1
		c0.1,0,0.1,0.1,0.1,0.3v0.6h-3.6v-0.6c0-0.1,0.1-0.3,0.3-0.3c0.2,0,0.4-0.1,0.8-0.2v-8.4h-2.5c-0.1,0.6-0.1,0.9-0.1,1
		c0,0.1-0.1,0.1-0.3,0.1h-0.7v-2.4h8.1h0.5H375.6z"/>
	<path d="M386.2,92.4v8.6c0.5,0.1,0.8,0.1,0.9,0.2c0.1,0,0.2,0.1,0.2,0.3v0.6h-3.6v-0.6c0-0.1,0.1-0.3,0.2-0.3l0.8-0.2v-3.8h-5.8
		v3.8c0.7,0.1,1.1,0.3,1.1,0.4v0.6h-3.6v-0.6c0-0.1,0.1-0.3,0.2-0.3l0.9-0.2v-8.6c-0.5-0.1-0.8-0.1-0.9-0.2c-0.1,0-0.2-0.1-0.2-0.3
		v-0.6h3.6V92c0,0.1,0,0.2-0.1,0.3c-0.1,0-0.4,0.1-0.9,0.2v3.7h5.8v-3.7c-0.5-0.1-0.8-0.1-0.9-0.2c-0.1,0-0.2-0.1-0.2-0.3v-0.6h3.6
		V92c0,0.1-0.1,0.3-0.2,0.3L386.2,92.4z"/>
	<path d="M395.9,91.4v2.6h-0.7c-0.2,0-0.3-0.1-0.3-0.3c0,0,0-0.4-0.1-1.2h-4v3.6h4v1.1h-4v3.7h4c0.1-0.7,0.1-1,0.1-1.1
		c0-0.2,0.1-0.2,0.3-0.2h0.7v2.5h-7.7v-0.6c0-0.1,0.1-0.3,0.2-0.3l0.9-0.2v-8.6c-0.5-0.1-0.8-0.1-0.9-0.2c-0.1,0-0.2-0.1-0.2-0.3
		v-0.6H395.9z"/>
	<path d="M408.2,91.4v2.6h-0.7c-0.2,0-0.3-0.1-0.3-0.3c0,0-0.1-0.4-0.1-1.2h-4.3v3.8h4.1v1.2h-4.1v3.5c0.1,0,0.4,0.1,0.8,0.2
		c0.1,0,0.2,0.1,0.2,0.3v0.6h-3.6v-0.6c0-0.1,0.1-0.3,0.2-0.3l0.9-0.2v-8.6c-0.5-0.1-0.8-0.1-0.9-0.2c-0.1,0-0.2-0.1-0.2-0.3v-0.6
		h1.1H408.2z"/>
	<path d="M411.5,92.4v8.6c0.5,0.1,0.8,0.1,0.9,0.2c0.1,0,0.2,0.1,0.2,0.3v0.6H409v-0.6c0-0.1,0.1-0.3,0.2-0.3l0.9-0.2v-8.6
		c-0.5-0.1-0.8-0.1-0.9-0.2c-0.1,0-0.2-0.1-0.2-0.3v-0.6h3.6V92c0,0.1-0.1,0.3-0.2,0.3L411.5,92.4z"/>
	<path d="M422.1,99.7c0-0.2,0-0.5,0-0.7v-6.5c-0.6-0.1-0.9-0.2-1-0.2c-0.1,0-0.2-0.1-0.2-0.3v-0.7h1.2h1.3h1.1V92
		c0,0.1-0.1,0.2-0.2,0.3l-0.9,0.2v9.6h-0.7c-0.2,0-0.4-0.1-0.5-0.3l-6.2-8.1c0,0.3,0,0.5,0,0.7v6.6c0.6,0.1,0.9,0.2,1,0.2
		c0.2,0,0.2,0.1,0.2,0.3v0.6h-3.6v-0.6c0-0.1,0.1-0.2,0.2-0.3l0.9-0.2v-8.5c-0.5-0.1-0.8-0.2-0.9-0.2c-0.1,0-0.2-0.1-0.2-0.3v-0.6
		h1.8c0.1,0,0.2,0,0.3,0c0.1,0,0.1,0.1,0.2,0.2L422.1,99.7L422.1,99.7z"/>
	<path d="M432.9,91.4v2.6h-0.7c-0.2,0-0.3-0.1-0.3-0.3c0,0,0-0.4-0.1-1.2h-4v3.6h4v1.1h-4v3.7h4c0.1-0.7,0.1-1,0.1-1.1
		c0-0.2,0.1-0.2,0.3-0.2h0.7v2.5h-7.7v-0.6c0-0.1,0.1-0.3,0.2-0.3l0.9-0.2v-8.6c-0.5-0.1-0.8-0.1-0.9-0.2c-0.1,0-0.2-0.1-0.2-0.3
		v-0.6H432.9z"/>
	<path d="M439.1,96.4c1.1,0.5,1.6,1.3,1.6,2.4c0,1-0.3,1.8-0.9,2.4c-0.7,0.7-1.6,1-2.7,1c-0.5,0-1,0-1.5-0.1
		c-0.5-0.1-0.9-0.2-1.2-0.3l-0.4-0.2v-2.7h0.7c0.2,0,0.3,0.1,0.3,0.3c0,0.1,0,0.3,0.1,0.7c0,0.4,0,0.7,0,0.7
		c0.7,0.3,1.3,0.4,1.8,0.4s0.8-0.1,1.1-0.1s0.5-0.2,0.7-0.4c0.4-0.4,0.6-0.8,0.6-1.4c0-0.6-0.3-1-0.8-1.3c-0.2-0.1-0.5-0.3-0.8-0.4
		c-1-0.3-1.6-0.5-1.9-0.6c-0.3-0.1-0.6-0.3-0.8-0.5c-0.5-0.5-0.8-1.2-0.8-2c0-0.8,0.3-1.5,0.9-2c0.6-0.6,1.4-0.9,2.4-0.9
		c1,0,2,0.2,3,0.6v2.5h-0.7c-0.2,0-0.3-0.1-0.3-0.3c0,0,0-0.5-0.1-1.3c-0.7-0.2-1.3-0.3-1.8-0.3c-0.6,0-1.1,0.1-1.5,0.5
		c-0.3,0.3-0.5,0.7-0.5,1.2c0,0.5,0.3,0.9,0.8,1.2c0.2,0.1,0.5,0.3,0.8,0.4C438.2,96,438.8,96.3,439.1,96.4L439.1,96.4z"/>
	<path d="M450.3,91.4v2.4h-0.7c-0.2,0-0.3,0-0.3-0.1s-0.1-0.4-0.1-1h-2.5v8.4c0,0,0.1,0,0.2,0c0.4,0.1,0.6,0.1,0.8,0.1
		c0.1,0,0.1,0.1,0.1,0.3v0.6H444v-0.6c0-0.1,0.1-0.3,0.3-0.3c0.2,0,0.4-0.1,0.8-0.2v-8.4h-2.5c-0.1,0.6-0.1,0.9-0.1,1
		c0,0.1-0.1,0.1-0.3,0.1h-0.7v-2.4h8.1h0.5H450.3z"/>
	<path d="M462,91.4v2.6h-0.7c-0.2,0-0.3-0.1-0.3-0.3c0,0,0-0.4-0.1-1.2h-4v3.6h4v1.1h-4v3.7h4c0.1-0.7,0.1-1,0.1-1.1
		c0-0.2,0.1-0.2,0.3-0.2h0.7v2.5h-7.7v-0.6c0-0.1,0.1-0.3,0.2-0.3l0.9-0.2v-8.6c-0.5-0.1-0.8-0.1-0.9-0.2c-0.1,0-0.2-0.1-0.2-0.3
		v-0.6H462z"/>
	<path d="M473.6,91.4V92c0,0.1-0.1,0.3-0.2,0.3l-0.9,0.2v5.4c0,1.3-0.4,2.3-1.1,3.1c-0.8,0.8-1.8,1.2-3.1,1.2
		c-1.3,0-2.3-0.4-3.1-1.2c-0.8-0.8-1.2-1.8-1.2-3.1v-5.4c-0.5-0.1-0.8-0.1-0.9-0.2c-0.1,0-0.2-0.1-0.2-0.3v-0.6h3.8V92
		c0,0.1-0.1,0.3-0.2,0.3c-0.1,0-0.4,0.1-1,0.2v5.4c0,0.9,0.2,1.7,0.8,2.2c0.5,0.6,1.2,0.9,2.1,0.9c0.9,0,1.6-0.3,2.1-0.9
		c0.5-0.6,0.8-1.3,0.8-2.2v-5.4c-0.6-0.1-0.9-0.1-1-0.2c-0.1,0-0.2-0.1-0.2-0.3v-0.6h1.2h1.4H473.6z"/>
	<path d="M483.2,101.2c0.1,0,0.2,0.1,0.2,0.3v0.7h-0.3h-0.8h-0.5c-0.3,0-0.4-0.1-0.6-0.3l-2.8-3.8c-0.1-0.1-0.2-0.2-0.3-0.3
		c-0.1-0.1-0.2-0.1-0.4-0.1h-1v3.4c0,0,0.7,0.1,0.8,0.2c0.1,0,0.2,0.1,0.2,0.3v0.6h-1.1h-1.5h-1.1v-0.6c0-0.1,0.1-0.2,0.2-0.3
		c0.1,0,0.9-0.2,0.9-0.2v-8.5c0,0-0.7-0.1-0.9-0.2c-0.1,0-0.2-0.1-0.2-0.3v-0.7h1.1h2.9c0.7,0,1.3,0.1,1.8,0.2
		c0.5,0.1,0.9,0.3,1.2,0.6s0.6,0.6,0.7,0.9c0.2,0.4,0.2,0.8,0.2,1.2c0,0.4-0.1,0.7-0.2,1s-0.3,0.6-0.5,0.9c-0.2,0.3-0.5,0.5-0.8,0.7
		c-0.3,0.2-0.7,0.3-1.1,0.4c0.2,0.1,0.3,0.2,0.5,0.5l2.3,3.2C482.5,101,483.1,101.1,483.2,101.2L483.2,101.2z M478.2,96.5
		c0.4,0,0.8,0,1.1-0.1s0.6-0.3,0.8-0.5c0.2-0.2,0.4-0.4,0.5-0.7s0.2-0.6,0.2-0.9c0-0.6-0.2-1.1-0.6-1.4s-1-0.5-1.9-0.5h-1.5v4H478.2
		L478.2,96.5z"/>
	<path d="M494.2,96.8c0,0.8-0.1,1.5-0.4,2.2c-0.3,0.7-0.6,1.3-1.1,1.7s-1,0.9-1.7,1.1s-1.4,0.4-2.2,0.4s-1.5-0.1-2.2-0.4
		c-0.7-0.3-1.2-0.6-1.7-1.1s-0.8-1.1-1.1-1.7c-0.3-0.7-0.4-1.4-0.4-2.2c0-0.8,0.1-1.5,0.4-2.2s0.6-1.3,1.1-1.7s1-0.9,1.7-1.1
		c0.7-0.3,1.4-0.4,2.2-0.4s1.5,0.1,2.2,0.4s1.2,0.6,1.7,1.1s0.8,1.1,1.1,1.7C494.1,95.2,494.2,95.9,494.2,96.8L494.2,96.8z
		 M492.7,96.8c0-0.7-0.1-1.3-0.3-1.8c-0.2-0.5-0.4-1-0.8-1.3c-0.3-0.4-0.7-0.6-1.2-0.8c-0.5-0.2-1-0.3-1.6-0.3
		c-0.6,0-1.1,0.1-1.6,0.3c-0.5,0.2-0.9,0.5-1.2,0.8c-0.3,0.4-0.6,0.8-0.8,1.3c-0.2,0.5-0.3,1.1-0.3,1.8c0,0.7,0.1,1.2,0.3,1.8
		c0.2,0.5,0.4,1,0.8,1.3s0.7,0.6,1.2,0.8c0.5,0.2,1,0.3,1.6,0.3c0.6,0,1.1-0.1,1.6-0.3c0.5-0.2,0.9-0.5,1.2-0.8s0.6-0.8,0.8-1.3
		C492.6,98,492.7,97.4,492.7,96.8L492.7,96.8z"/>
	<path d="M500.9,91.6c1.5,0.5,2.2,1.5,2.2,3.1c0,1-0.3,1.8-1,2.4c-0.7,0.6-1.7,1-3,1h-1.5v2.9c0.1,0,0.4,0.1,0.9,0.2
		c0.2,0,0.2,0.1,0.2,0.3v0.6h-3.6v-0.6c0-0.1,0.1-0.3,0.2-0.3l0.9-0.2v-8.6c-0.5-0.1-0.8-0.1-0.9-0.2c-0.2,0-0.2-0.1-0.2-0.3v-0.6h4
		C499.9,91.4,500.4,91.4,500.9,91.6L500.9,91.6z M501.7,94.7c0-0.7-0.2-1.2-0.6-1.6c-0.4-0.4-1-0.6-1.9-0.6h-1.5v4.4h1.5
		c0.8,0,1.4-0.2,1.9-0.6C501.5,95.9,501.7,95.4,501.7,94.7L501.7,94.7z"/>
	<path d="M511.7,91.4v2.6H511c-0.2,0-0.3-0.1-0.3-0.3c0,0,0-0.4-0.1-1.2h-4v3.6h4v1.1h-4v3.7h4c0.1-0.7,0.1-1,0.1-1.1
		c0-0.2,0.1-0.2,0.3-0.2h0.7v2.5H504v-0.6c0-0.1,0.1-0.3,0.2-0.3l0.9-0.2v-8.6c-0.5-0.1-0.8-0.1-0.9-0.2c-0.2,0-0.2-0.1-0.2-0.3
		v-0.6H511.7z"/>
	<path d="M523.5,101.5v0.6h-3.1v-0.6c0-0.1,0.1-0.2,0.2-0.2l0.6-0.2l-0.8-2.2h-4.6l-0.8,2.2l0.6,0.2c0.1,0,0.2,0.1,0.2,0.2v0.6h-3.1
		v-0.6c0-0.1,0.1-0.2,0.2-0.2l0.6-0.2l3.9-9.7h1.5l3.9,9.7l0.6,0.2C523.4,101.3,523.5,101.4,523.5,101.5z M520,97.9l-1.6-4.1
		c-0.1-0.3-0.2-0.6-0.3-1c-0.1,0.4-0.2,0.8-0.3,1l-1.6,4.1H520z"/>
	<path d="M532.9,99.7c0-0.2,0-0.5,0-0.7v-6.5c-0.6-0.1-0.9-0.2-1-0.2c-0.2,0-0.2-0.1-0.2-0.3v-0.7h1.2h1.3h1.1V92
		c0,0.1-0.1,0.2-0.2,0.3l-0.9,0.2v9.6h-0.7c-0.2,0-0.4-0.1-0.5-0.3l-6.2-8.1c0,0.3,0,0.5,0,0.7v6.6c0.6,0.1,0.9,0.2,1,0.2
		c0.1,0,0.2,0.1,0.2,0.3v0.6h-3.6v-0.6c0-0.1,0.1-0.2,0.2-0.3l0.9-0.2v-8.5c-0.5-0.1-0.8-0.2-0.9-0.2c-0.2,0-0.2-0.1-0.2-0.3v-0.6
		h1.8c0.1,0,0.2,0,0.3,0c0.1,0,0.1,0.1,0.2,0.2L532.9,99.7L532.9,99.7z"/>
	<path d="M547.9,91.4v2.4h-0.7c-0.2,0-0.3,0-0.3-0.1c0-0.1-0.1-0.4-0.1-1h-2.5v8.4c0,0,0.1,0,0.2,0c0.4,0.1,0.6,0.1,0.8,0.1
		c0.1,0,0.1,0.1,0.1,0.3v0.6h-3.6v-0.6c0-0.1,0.1-0.3,0.3-0.3c0.2,0,0.4-0.1,0.8-0.2v-8.4h-2.5c-0.1,0.6-0.1,0.9-0.1,1
		c0,0.1-0.1,0.1-0.3,0.1h-0.7v-2.4h8.1h0.5H547.9z"/>
	<path d="M557.6,101.2c0.1,0,0.2,0.1,0.2,0.3v0.7h-0.3h-0.8h-0.5c-0.3,0-0.4-0.1-0.6-0.3l-2.8-3.8c-0.1-0.1-0.2-0.2-0.3-0.3
		c-0.1-0.1-0.2-0.1-0.4-0.1h-1v3.4c0,0,0.7,0.1,0.8,0.2c0.1,0,0.2,0.1,0.2,0.3v0.6h-1.1h-1.5h-1.1v-0.6c0-0.1,0.1-0.2,0.2-0.3
		c0.1,0,0.9-0.2,0.9-0.2v-8.5c0,0-0.7-0.1-0.9-0.2c-0.1,0-0.2-0.1-0.2-0.3v-0.7h1.1h2.9c0.7,0,1.3,0.1,1.8,0.2
		c0.5,0.1,0.9,0.3,1.2,0.6s0.6,0.6,0.7,0.9c0.2,0.4,0.2,0.8,0.2,1.2c0,0.4-0.1,0.7-0.2,1s-0.3,0.6-0.5,0.9c-0.2,0.3-0.5,0.5-0.8,0.7
		c-0.3,0.2-0.7,0.3-1.1,0.4c0.2,0.1,0.3,0.2,0.5,0.5l2.3,3.2C556.8,101,557.5,101.1,557.6,101.2L557.6,101.2z M552.5,96.5
		c0.4,0,0.8,0,1.1-0.1s0.6-0.3,0.8-0.5c0.2-0.2,0.4-0.4,0.5-0.7s0.2-0.6,0.2-0.9c0-0.6-0.2-1.1-0.6-1.4s-1-0.5-1.9-0.5h-1.5v4H552.5
		L552.5,96.5z"/>
	<path d="M569.4,101.5v0.6h-3.1v-0.6c0-0.1,0.1-0.2,0.2-0.2l0.6-0.2l-0.8-2.2h-4.6l-0.8,2.2l0.6,0.2c0.1,0,0.2,0.1,0.2,0.2v0.6h-3.1
		v-0.6c0-0.1,0.1-0.2,0.2-0.2l0.6-0.2l3.9-9.7h1.5l3.9,9.7l0.6,0.2C569.3,101.3,569.4,101.4,569.4,101.5z M565.9,97.9l-1.6-4.1
		c-0.1-0.3-0.2-0.6-0.3-1c-0.1,0.4-0.2,0.8-0.3,1l-1.6,4.1H565.9z"/>
	<path d="M580.2,98.9c-0.3,0.7-0.6,1.2-1.1,1.7c-1,1-2.2,1.5-3.8,1.5h-5v-0.6c0-0.1,0.1-0.3,0.2-0.3l0.8-0.2v-8.6
		c-0.5-0.1-0.8-0.1-0.8-0.2c-0.2,0-0.2-0.1-0.2-0.3v-0.6h5c1.6,0,2.9,0.5,3.8,1.5c1,1,1.5,2.3,1.5,3.9
		C580.5,97.5,580.4,98.3,580.2,98.9z M578.8,95c-0.2-0.5-0.4-1-0.8-1.3c-0.7-0.8-1.6-1.1-2.8-1.1h-2.4v8.4h2.4
		c1.2,0,2.1-0.4,2.8-1.1c0.7-0.8,1-1.8,1-3.1C579,96.1,579,95.5,578.8,95z"/>
	<path d="M584,92.4v8.6c0.5,0.1,0.8,0.1,0.9,0.2c0.1,0,0.2,0.1,0.2,0.3v0.6h-3.6v-0.6c0-0.1,0.1-0.3,0.2-0.3l0.9-0.2v-8.6
		c-0.5-0.1-0.8-0.1-0.9-0.2c-0.1,0-0.2-0.1-0.2-0.3v-0.6h3.6V92c0,0.1-0.1,0.3-0.2,0.3L584,92.4z"/>
	<path d="M594.7,91.4v2.4h-0.7c-0.2,0-0.3,0-0.3-0.1c0-0.1-0.1-0.4-0.1-1H591v8.4c0,0,0.1,0,0.2,0c0.4,0.1,0.6,0.1,0.8,0.1
		c0.1,0,0.1,0.1,0.1,0.3v0.6h-3.6v-0.6c0-0.1,0.1-0.3,0.3-0.3c0.2,0,0.4-0.1,0.8-0.2v-8.4H587c-0.1,0.6-0.1,0.9-0.1,1
		c0,0.1-0.1,0.1-0.3,0.1h-0.7v-2.4h8.1h0.5H594.7z"/>
	<path d="M598,92.4v8.6c0.5,0.1,0.8,0.1,0.9,0.2c0.1,0,0.2,0.1,0.2,0.3v0.6h-3.6v-0.6c0-0.1,0.1-0.3,0.2-0.3l0.9-0.2v-8.6
		c-0.5-0.1-0.8-0.1-0.9-0.2c-0.1,0-0.2-0.1-0.2-0.3v-0.6h3.6V92c0,0.1-0.1,0.3-0.2,0.3L598,92.4z"/>
	<path d="M610.4,96.8c0,0.8-0.1,1.5-0.4,2.2c-0.3,0.7-0.6,1.3-1.1,1.7s-1,0.9-1.7,1.1s-1.4,0.4-2.2,0.4s-1.5-0.1-2.2-0.4
		c-0.7-0.3-1.2-0.6-1.7-1.1s-0.8-1.1-1.1-1.7c-0.3-0.7-0.4-1.4-0.4-2.2c0-0.8,0.1-1.5,0.4-2.2s0.6-1.3,1.1-1.7s1-0.9,1.7-1.1
		c0.7-0.3,1.4-0.4,2.2-0.4s1.5,0.1,2.2,0.4s1.2,0.6,1.7,1.1s0.8,1.1,1.1,1.7C610.3,95.2,610.4,95.9,610.4,96.8L610.4,96.8z
		 M608.9,96.8c0-0.7-0.1-1.3-0.3-1.8c-0.2-0.5-0.4-1-0.8-1.3c-0.3-0.4-0.7-0.6-1.2-0.8c-0.5-0.2-1-0.3-1.6-0.3
		c-0.6,0-1.1,0.1-1.6,0.3c-0.5,0.2-0.9,0.5-1.2,0.8c-0.3,0.4-0.6,0.8-0.8,1.3c-0.2,0.5-0.3,1.1-0.3,1.8c0,0.7,0.1,1.2,0.3,1.8
		c0.2,0.5,0.4,1,0.8,1.3s0.7,0.6,1.2,0.8c0.5,0.2,1,0.3,1.6,0.3c0.6,0,1.1-0.1,1.6-0.3c0.5-0.2,0.9-0.5,1.2-0.8s0.6-0.8,0.8-1.3
		C608.9,98,608.9,97.4,608.9,96.8L608.9,96.8z"/>
	<path d="M619.7,99.7c0-0.2,0-0.5,0-0.7v-6.5c-0.6-0.1-0.9-0.2-1-0.2c-0.2,0-0.2-0.1-0.2-0.3v-0.7h1.2h1.3h1.1V92
		c0,0.1-0.1,0.2-0.2,0.3l-0.9,0.2v9.6h-0.7c-0.2,0-0.4-0.1-0.5-0.3l-6.2-8.1c0,0.3,0,0.5,0,0.7v6.6c0.6,0.1,0.9,0.2,1,0.2
		c0.1,0,0.2,0.1,0.2,0.3v0.6h-3.6v-0.6c0-0.1,0.1-0.2,0.2-0.3l0.9-0.2v-8.5c-0.5-0.1-0.8-0.2-0.9-0.2c-0.2,0-0.2-0.1-0.2-0.3v-0.6
		h1.8c0.1,0,0.2,0,0.3,0c0.1,0,0.1,0.1,0.2,0.2L619.7,99.7L619.7,99.7z"/>
	<path d="M627.9,96.4c1.1,0.5,1.6,1.3,1.6,2.4c0,1-0.3,1.8-0.9,2.4c-0.7,0.7-1.6,1-2.7,1c-0.5,0-1,0-1.5-0.1
		c-0.5-0.1-0.9-0.2-1.2-0.3l-0.4-0.2v-2.7h0.7c0.2,0,0.3,0.1,0.3,0.3c0,0.1,0,0.3,0.1,0.7c0,0.4,0,0.7,0,0.7
		c0.8,0.3,1.4,0.4,1.8,0.4c0.5,0,0.8-0.1,1.1-0.1c0.3-0.1,0.5-0.2,0.7-0.4c0.4-0.4,0.6-0.8,0.6-1.4c0-0.6-0.3-1-0.8-1.3
		c-0.2-0.1-0.5-0.3-0.8-0.4c-1-0.3-1.6-0.5-1.9-0.6c-0.3-0.1-0.6-0.3-0.8-0.5c-0.5-0.5-0.8-1.2-0.8-2c0-0.8,0.3-1.5,0.9-2
		c0.6-0.6,1.4-0.9,2.4-0.9s2,0.2,3,0.6v2.5h-0.7c-0.2,0-0.3-0.1-0.3-0.3c0,0,0-0.5-0.1-1.3c-0.7-0.2-1.3-0.3-1.8-0.3
		c-0.6,0-1.1,0.1-1.5,0.5c-0.3,0.3-0.5,0.7-0.5,1.2c0,0.5,0.3,0.9,0.8,1.2c0.2,0.1,0.5,0.3,0.8,0.4C626.9,96,627.6,96.3,627.9,96.4
		L627.9,96.4z"/>
</g>
<g>
	<path class="st2" d="M640.8,92.5c1-0.4,3.3-0.6,5.4,0c3.3,1,6.5,4,4.4,7.2c-1.2,1.9-5.1,2.2-6.6,0.1c-1.1-1.6,1.2-3.9,1.7-1.3
		C646.5,101.8,654.3,93.1,640.8,92.5z"/>
	<path class="st2" d="M635.5,94.7c3-2.2,5.3-2.5,7.3-2.4c3.3,0.2,7.1,3.5,9.6,6.4c3.6,4.3,15.3,5.7,15.1-2.5
		c-0.2-6.1-10.2-7.9-11.9-3.2c-1.8,5,6,6.9,6.2,4.2c0.1-2.2-2.9-0.8-3.2-1.5c-0.5-1.1,0.6-2.4,2.1-2.8c1.6-0.4,3.6,0.2,4,2.3
		c0.4,2.9-3.7,4.7-6,4.3c-3.6-0.7-5.6-3.1-8.4-5.1c-1.7-1.3-3.9-2.3-6.4-2.8C641.9,91.5,637.1,92.4,635.5,94.7z"/>
	<path class="st2" d="M665.9,100.2c3.4-1.7,4-0.4,7.2,1.2c0.9,0.5,4.2,1.1,5.2,0.8c1.9-0.7,1.9-2.7,0.3-3.5
		c-2.6-1.4-2.8,3.5-6.3,0.7c-1.1-0.9-2.8-1.1-4.2-0.9C667.5,98.6,666.4,99.9,665.9,100.2z"/>
	<path class="st2" d="M635.5,94.6c11.6-6,18.6,4.2,28,0.9c3.8-1.3,8.3-5.5,7.3-9.4c-0.8-3.2-3.5-3.9-5.5-3.4c-1.9,0.5-3.2,2-3.1,4.1
		c0.1,2.3,2.5,3.1,2.6,0.6c0-0.3-0.6-0.9-0.5-1.8c0.1-0.8,0.7-1.9,2.5-1.8c2.2,0.1,4.3,2.9,2.7,6.1c-1,2-3.2,4-5.9,5
		c-3.1,1.2-7.5,0.6-11.3-0.7c-7-2.6-9.3-3.4-14.8-0.7C636.8,93.7,636.3,94.2,635.5,94.6z"/>
	<path class="st2" d="M668.3,92.1c1-2.3,3-4.2,5.2-4.8c3-0.9,5.5,0.6,6.3,2.6c0.8,1.9,0.1,4.2-1.6,5.5c-1.4,1-3.3,1.1-4,0.4
		c-1.7-1.5,1.6-1.3,2.6-1.8c3.1-1.7,2.1-5.3-1.4-5.7C673,88,669.6,90.8,668.3,92.1z"/>
	<path class="st2" d="M666.9,99.5c1.1-0.7,4.8-2.7,4.5-4.3c-0.1-0.8-1.3-0.7-1.4,0.1C669.5,97.9,668,97.8,666.9,99.5z"/>
	<path class="st2" d="M690.3,85.8c1.5,2.6,3.6,8.5,6.6,12.3c3.4,4.3,7.8,4,10,1.8c2.9-2.8,2.7-8.6-2.6-10.4
		c-2.7-0.9-5.3,2.2-4.3,4.9c0.9,2.5,3.5,0.1,3.1-1.9c-0.5-2.5,6,0.1,3.5,4.5c-1.6,2.8-4.5,2.7-7.1,0.6
		C695.2,94.5,691.2,87.4,690.3,85.8z"/>
	<path class="st2" d="M683.6,96.9c0.1,0.7,0.5,1.4,1,2c1.2,1.3,3.4,2.1,5.1,1.5c2.1-0.8,3.4-3.6,3.1-7.2c-0.4-5.2-3.8-11.2-9.4-11.8
		c-2.4-0.2-6.3,0.1-9.3,3.8c-0.5,0.6-1.1,1.9-1.2,2.5c-0.2,0.6,0.3-0.1,0.2,0.7c0.8-3.7,4.5-6.5,9.6-6c9,0.8,10.4,13.7,7.7,16.4
		c-1.9,1.9-5.2,0-4.5-1.6C687.7,93.4,683.1,93.8,683.6,96.9z"/>
	<path class="st2" d="M673.2,88.4c0.8-4.3,8.8-7.9,11.8-4c1.1,1.4,0.6,4.5-1.2,5.3c-2.5,1.1-5.6-1-4-2.7c0.7-0.8,2.2-0.5,2.2-0.6
		C682.9,82.3,674.9,84.1,673.2,88.4z"/>
	<path class="st2" d="M690.5,87.2c2.3,3.6,9.4,5,10.4-0.4c0.8-4.3-5.6-7.3-6.5-3.9c-0.7,2.4,2.6,3.1,3.3,1.1
		c0.4-1.4,2.3,0.4,2.5,1.5C701.3,92.1,692.6,90.1,690.5,87.2z"/>
</g>
<g>
	<path class="st2" d="M127.4,92.5c-1-0.4-3.3-0.6-5.4,0c-3.3,1-6.5,4-4.4,7.2c1.2,1.9,5.1,2.2,6.6,0.1c1.1-1.6-1.2-3.9-1.7-1.3
		C121.8,101.8,113.9,93.1,127.4,92.5z"/>
	<path class="st2" d="M132.7,94.7c-3-2.2-5.3-2.5-7.3-2.4c-3.3,0.2-7.1,3.5-9.6,6.4c-3.6,4.3-15.3,5.7-15.1-2.5
		c0.2-6.1,10.2-7.9,11.9-3.2c1.8,5-6,6.9-6.2,4.2c-0.1-2.2,2.9-0.8,3.2-1.5c0.5-1.1-0.6-2.4-2.1-2.8c-1.6-0.4-3.6,0.2-4,2.3
		c-0.4,2.9,3.7,4.7,6,4.3c3.6-0.7,5.6-3.1,8.4-5.1c1.7-1.3,3.9-2.3,6.4-2.8C126.3,91.5,131.1,92.4,132.7,94.7z"/>
	<path class="st2" d="M102.3,100.2c-3.4-1.7-4-0.4-7.2,1.2c-0.9,0.5-4.2,1.1-5.2,0.8c-1.9-0.7-1.9-2.7-0.3-3.5
		c2.6-1.4,2.8,3.5,6.3,0.7c1.1-0.9,2.8-1.1,4.2-0.9C100.7,98.6,101.8,99.9,102.3,100.2z"/>
	<path class="st2" d="M132.7,94.6c-11.6-6-18.6,4.2-28,0.9c-3.8-1.3-8.3-5.5-7.3-9.4c0.8-3.2,3.5-3.9,5.5-3.4c1.9,0.5,3.2,2,3.1,4.1
		c-0.1,2.3-2.5,3.1-2.6,0.6c0-0.3,0.6-0.9,0.5-1.8c-0.1-0.8-0.7-1.9-2.5-1.8c-2.2,0.1-4.3,2.9-2.7,6.1c1,2,3.2,4,5.9,5
		c3.1,1.2,7.5,0.6,11.3-0.7c7-2.6,9.3-3.4,14.8-0.7C131.4,93.7,131.9,94.2,132.7,94.6z"/>
	<path class="st2" d="M99.9,92.1c-1-2.3-3-4.2-5.2-4.8c-3-0.9-5.5,0.6-6.3,2.6c-0.8,1.9-0.1,4.2,1.6,5.5c1.4,1,3.3,1.1,4,0.4
		c1.7-1.5-1.6-1.3-2.6-1.8c-3.1-1.7-2.1-5.3,1.4-5.7C95.2,88,98.6,90.8,99.9,92.1z"/>
	<path class="st2" d="M101.3,99.5c-1.1-0.7-4.8-2.7-4.5-4.3c0.1-0.8,1.3-0.7,1.4,0.1C98.7,97.9,100.2,97.8,101.3,99.5z"/>
	<path class="st2" d="M77.9,85.8c-1.5,2.6-3.6,8.5-6.6,12.3c-3.4,4.3-7.8,4-10,1.8c-2.9-2.8-2.7-8.6,2.6-10.4
		c2.7-0.9,5.3,2.2,4.3,4.9c-0.9,2.5-3.5,0.1-3.1-1.9c0.5-2.5-6,0.1-3.5,4.5c1.6,2.8,4.5,2.7,7.1,0.6C73,94.5,77,87.4,77.9,85.8z"/>
	<path class="st2" d="M84.6,96.9c-0.1,0.7-0.5,1.4-1,2c-1.2,1.3-3.4,2.1-5.1,1.5c-2.1-0.8-3.4-3.6-3.1-7.2
		c0.4-5.2,3.8-11.2,9.4-11.8c2.4-0.2,6.3,0.1,9.3,3.8c0.5,0.6,1.1,1.9,1.2,2.5c0.2,0.6-0.3-0.1-0.2,0.7c-0.8-3.7-4.5-6.5-9.6-6
		c-9,0.8-10.4,13.7-7.7,16.4c1.9,1.9,5.2,0,4.5-1.6C80.5,93.4,85.1,93.8,84.6,96.9z"/>
	<path class="st2" d="M95,88.4c-0.8-4.3-8.8-7.9-11.8-4c-1.1,1.4-0.6,4.5,1.2,5.3c2.5,1.1,5.6-1,4-2.7c-0.7-0.8-2.2-0.5-2.2-0.6
		C85.3,82.3,93.3,84.1,95,88.4z"/>
	<path class="st2" d="M77.7,87.2c-2.3,3.6-9.4,5-10.4-0.4c-0.8-4.3,5.6-7.3,6.5-3.9c0.7,2.4-2.6,3.1-3.3,1.1
		c-0.4-1.4-2.3,0.4-2.5,1.5C66.9,92.1,75.6,90.1,77.7,87.2z"/>
</g>
</svg>
